<svg xmlns="http://www.w3.org/2000/svg" width="1200" height="720" viewBox="0 0 1200 720" role="img" aria-labelledby="title desc">
  <title id="title">九、OPC 能力会变得更现实</title>
  <desc id="desc">AI 降低启动门槛，软件工程判断力决定上限</desc>
  <defs>
    <radialGradient id="paper" cx="50%" cy="45%" r="72%">
      <stop offset="0%" stop-color="#f8f1e3"/>
      <stop offset="100%" stop-color="#f2ead9"/>
    </radialGradient>
    <marker id="arrow" viewBox="0 0 12 12" refX="10" refY="6" markerWidth="13" markerHeight="13" orient="auto">
      <path d="M 1 1 L 11 6 L 1 11 z" fill="#171412" stroke="#171412" stroke-width="1"/>
    </marker>
    <marker id="smallArrow" viewBox="0 0 10 10" refX="8" refY="5" markerWidth="8" markerHeight="8" orient="auto">
      <path d="M 1 1 L 9 5 L 1 9 z" fill="#171412"/>
    </marker>
    <filter id="softShadow" x="-20%" y="-20%" width="140%" height="140%">
      <feDropShadow dx="0" dy="10" stdDeviation="8" flood-color="#161412" flood-opacity=".10"/>
    </filter>
  </defs>
  <rect width="1200" height="720" fill="url(#paper)"/>
  <path d="M 40 654 C 250 690 510 674 694 698 C 856 718 1010 696 1160 666" fill="none" stroke="#e6ddca" stroke-width="4" opacity=".6"/>
  <path d="M 34 22 C 230 10 460 18 690 12 C 880 8 1030 12 1166 24" fill="none" stroke="#efe5d0" stroke-width="4" opacity=".42"/>
  <text x="600" y="56" text-anchor="middle" font-family="'LXGW WenKai','PingFang SC','Microsoft YaHei',Arial,sans-serif" font-size="40" font-weight="900" fill="#171412">九、OPC 能力会变得更现实</text>
  <text x="600" y="92" text-anchor="middle" font-family="'LXGW WenKai','PingFang SC','Microsoft YaHei',Arial,sans-serif" font-size="22" font-weight="700" fill="#69645d">AI 降低启动门槛，软件工程判断力决定上限</text>
  <text x="224" y="146" text-anchor="middle" font-family="'LXGW WenKai','PingFang SC','Microsoft YaHei',Arial,sans-serif" font-size="31" font-weight="900" fill="#df765d">以前：需要小团队</text><g>
    <g opacity="1">
    <path d="M 82 215 L 436 214 Q 451 214 450 226 L 449 530 Q 450 543 438 542 L 83 541 Q 69 542 70 530 L 71 226 Q 70 214 82 215 Z" fill="#fff8eb" stroke="#171412" stroke-width="3" stroke-linejoin="round"/>
    <path d="M 84 217 L 439 216 Q 448 215 448 227 L 451 528 Q 449 540 437 541 L 80 543 Q 71 540 72 529 L 69 228 Q 71 215 84 217 Z" fill="none" stroke="#171412" stroke-width="1.6500000000000001" stroke-linejoin="round" opacity=".45"/>
  </g>
    <path d="M 71 256 L 449 254" stroke="#171412" stroke-width="3"/>
    <path d="M 82 216 L 438 215 Q 450 215 449 229 L 449 255 L 71 256 L 71 228 Q 71 217 82 216 Z" fill="#df765d" opacity=".95" stroke="#171412" stroke-width="2.5"/>
    <circle cx="92" cy="236" r="7" fill="#df765d" stroke="#171412" stroke-width="2"/>
    <circle cx="116" cy="236" r="7" fill="#e9c46a" stroke="#171412" stroke-width="2"/>
    <circle cx="140" cy="236" r="7" fill="#91bba5" stroke="#171412" stroke-width="2"/>
    <text x="260" y="242" text-anchor="middle" font-family="'LXGW WenKai','PingFang SC','Microsoft YaHei',Arial,sans-serif" font-size="20" font-weight="800" fill="#171412">多人启动产品</text>
  </g><g>
    <g opacity="1">
    <path d="M 121 281 L 171 280 Q 191 280 190 297 L 189 297 Q 190 315 173 314 L 122 313 Q 103 314 104 297 L 105 297 Q 104 280 121 281 Z" fill="#f3b29f" stroke="#171412" stroke-width="2" stroke-linejoin="round"/>
    <path d="M 123 283 L 174 282 Q 188 281 188 298 L 191 295 Q 189 312 172 313 L 119 315 Q 105 312 106 296 L 103 299 Q 105 281 123 283 Z" fill="none" stroke="#171412" stroke-width="1.2" stroke-linejoin="round" opacity=".45"/>
  </g>
    <text x="147" y="303" text-anchor="middle" font-family="'LXGW WenKai','PingFang SC','Microsoft YaHei',Arial,sans-serif" font-size="17" font-weight="800" fill="#171412">市场</text>
  </g><g>
    <g opacity="1">
    <path d="M 226 281 L 276 280 Q 296 280 295 297 L 294 297 Q 295 315 278 314 L 227 313 Q 208 314 209 297 L 210 297 Q 209 280 226 281 Z" fill="#fff8eb" stroke="#171412" stroke-width="2" stroke-linejoin="round"/>
    <path d="M 228 283 L 279 282 Q 293 281 293 298 L 296 295 Q 294 312 277 313 L 224 315 Q 210 312 211 296 L 208 299 Q 210 281 228 283 Z" fill="none" stroke="#171412" stroke-width="1.2" stroke-linejoin="round" opacity=".45"/>
  </g>
    <text x="252" y="303" text-anchor="middle" font-family="'LXGW WenKai','PingFang SC','Microsoft YaHei',Arial,sans-serif" font-size="17" font-weight="800" fill="#171412">产品</text>
  </g><g>
    <g opacity="1">
    <path d="M 331 281 L 381 280 Q 401 280 400 297 L 399 297 Q 400 315 383 314 L 332 313 Q 313 314 314 297 L 315 297 Q 314 280 331 281 Z" fill="#f3b29f" stroke="#171412" stroke-width="2" stroke-linejoin="round"/>
    <path d="M 333 283 L 384 282 Q 398 281 398 298 L 401 295 Q 399 312 382 313 L 329 315 Q 315 312 316 296 L 313 299 Q 315 281 333 283 Z" fill="none" stroke="#171412" stroke-width="1.2" stroke-linejoin="round" opacity=".45"/>
  </g>
    <text x="357" y="303" text-anchor="middle" font-family="'LXGW WenKai','PingFang SC','Microsoft YaHei',Arial,sans-serif" font-size="17" font-weight="800" fill="#171412">设计</text>
  </g><g>
    <g opacity="1">
    <path d="M 121 359 L 171 358 Q 191 358 190 375 L 189 375 Q 190 393 173 392 L 122 391 Q 103 392 104 375 L 105 375 Q 104 358 121 359 Z" fill="#fff8eb" stroke="#171412" stroke-width="2" stroke-linejoin="round"/>
    <path d="M 123 361 L 174 360 Q 188 359 188 376 L 191 373 Q 189 390 172 391 L 119 393 Q 105 390 106 374 L 103 377 Q 105 359 123 361 Z" fill="none" stroke="#171412" stroke-width="1.2" stroke-linejoin="round" opacity=".45"/>
  </g>
    <text x="147" y="381" text-anchor="middle" font-family="'LXGW WenKai','PingFang SC','Microsoft YaHei',Arial,sans-serif" font-size="17" font-weight="800" fill="#171412">前端</text>
  </g><g>
    <g opacity="1">
    <path d="M 226 359 L 276 358 Q 296 358 295 375 L 294 375 Q 295 393 278 392 L 227 391 Q 208 392 209 375 L 210 375 Q 209 358 226 359 Z" fill="#f3b29f" stroke="#171412" stroke-width="2" stroke-linejoin="round"/>
    <path d="M 228 361 L 279 360 Q 293 359 293 376 L 296 373 Q 294 390 277 391 L 224 393 Q 210 390 211 374 L 208 377 Q 210 359 228 361 Z" fill="none" stroke="#171412" stroke-width="1.2" stroke-linejoin="round" opacity=".45"/>
  </g>
    <text x="252" y="381" text-anchor="middle" font-family="'LXGW WenKai','PingFang SC','Microsoft YaHei',Arial,sans-serif" font-size="17" font-weight="800" fill="#171412">后端</text>
  </g><g>
    <g opacity="1">
    <path d="M 331 359 L 381 358 Q 401 358 400 375 L 399 375 Q 400 393 383 392 L 332 391 Q 313 392 314 375 L 315 375 Q 314 358 331 359 Z" fill="#fff8eb" stroke="#171412" stroke-width="2" stroke-linejoin="round"/>
    <path d="M 333 361 L 384 360 Q 398 359 398 376 L 401 373 Q 399 390 382 391 L 329 393 Q 315 390 316 374 L 313 377 Q 315 359 333 361 Z" fill="none" stroke="#171412" stroke-width="1.2" stroke-linejoin="round" opacity=".45"/>
  </g>
    <text x="357" y="381" text-anchor="middle" font-family="'LXGW WenKai','PingFang SC','Microsoft YaHei',Arial,sans-serif" font-size="17" font-weight="800" fill="#171412">测试</text>
  </g><g>
    <g opacity="1">
    <path d="M 121 437 L 171 436 Q 191 436 190 453 L 189 453 Q 190 471 173 470 L 122 469 Q 103 470 104 453 L 105 453 Q 104 436 121 437 Z" fill="#f3b29f" stroke="#171412" stroke-width="2" stroke-linejoin="round"/>
    <path d="M 123 439 L 174 438 Q 188 437 188 454 L 191 451 Q 189 468 172 469 L 119 471 Q 105 468 106 452 L 103 455 Q 105 437 123 439 Z" fill="none" stroke="#171412" stroke-width="1.2" stroke-linejoin="round" opacity=".45"/>
  </g>
    <text x="147" y="459" text-anchor="middle" font-family="'LXGW WenKai','PingFang SC','Microsoft YaHei',Arial,sans-serif" font-size="17" font-weight="800" fill="#171412">运维</text>
  </g><path d="M 486 378 C 560 334 610 334 684 378" fill="none" stroke="#171412" stroke-width="12" stroke-linecap="round" stroke-linejoin="round" marker-end="url(#arrow)" opacity="1"/><g>
    <g opacity="1">
    <path d="M 565 331 L 675 330 Q 695 330 694 347 L 693 347 Q 694 365 677 364 L 566 363 Q 547 364 548 347 L 549 347 Q 548 330 565 331 Z" fill="#fff8eb" stroke="#171412" stroke-width="2" stroke-linejoin="round"/>
    <path d="M 567 333 L 678 332 Q 692 331 692 348 L 695 345 Q 693 362 676 363 L 563 365 Q 549 362 550 346 L 547 349 Q 549 331 567 333 Z" fill="none" stroke="#171412" stroke-width="1.2" stroke-linejoin="round" opacity=".45"/>
  </g>
    <text x="621" y="353" text-anchor="middle" font-family="'LXGW WenKai','PingFang SC','Microsoft YaHei',Arial,sans-serif" font-size="17" font-weight="800" fill="#171412">AI 扩大半径</text>
  </g><text x="930" y="146" text-anchor="middle" font-family="'LXGW WenKai','PingFang SC','Microsoft YaHei',Arial,sans-serif" font-size="31" font-weight="900" fill="#91bba5">以后：OPC 闭环</text><g>
    <g opacity="1">
    <path d="M 712 215 L 1116 214 Q 1131 214 1130 226 L 1129 530 Q 1130 543 1118 542 L 713 541 Q 699 542 700 530 L 701 226 Q 700 214 712 215 Z" fill="#fff8eb" stroke="#171412" stroke-width="3" stroke-linejoin="round"/>
    <path d="M 714 217 L 1119 216 Q 1128 215 1128 227 L 1131 528 Q 1129 540 1117 541 L 710 543 Q 701 540 702 529 L 699 228 Q 701 215 714 217 Z" fill="none" stroke="#171412" stroke-width="1.6500000000000001" stroke-linejoin="round" opacity=".45"/>
  </g>
    <path d="M 701 256 L 1129 254" stroke="#171412" stroke-width="3"/>
    <path d="M 712 216 L 1118 215 Q 1130 215 1129 229 L 1129 255 L 701 256 L 701 228 Q 701 217 712 216 Z" fill="#91bba5" opacity=".95" stroke="#171412" stroke-width="2.5"/>
    <circle cx="722" cy="236" r="7" fill="#df765d" stroke="#171412" stroke-width="2"/>
    <circle cx="746" cy="236" r="7" fill="#e9c46a" stroke="#171412" stroke-width="2"/>
    <circle cx="770" cy="236" r="7" fill="#91bba5" stroke="#171412" stroke-width="2"/>
    <text x="915" y="242" text-anchor="middle" font-family="'LXGW WenKai','PingFang SC','Microsoft YaHei',Arial,sans-serif" font-size="20" font-weight="800" fill="#171412">一个人 + AI 工具组</text>
  </g><g opacity="1">
    <path d="M 900 331 L 948 330 Q 981 330 980 360 L 979 410 Q 980 441 950 440 L 901 439 Q 869 440 870 410 L 871 360 Q 870 330 900 331 Z" fill="#fff8eb" stroke="#171412" stroke-width="4" stroke-linejoin="round"/>
    <path d="M 902 333 L 951 332 Q 978 331 978 361 L 981 408 Q 979 438 949 439 L 898 441 Q 871 438 872 409 L 869 362 Q 871 331 902 333 Z" fill="none" stroke="#171412" stroke-width="2.2" stroke-linejoin="round" opacity=".45"/>
  </g><text x="925" y="382" text-anchor="middle" font-family="'LXGW WenKai','PingFang SC','Microsoft YaHei',Arial,sans-serif" font-size="38" font-weight="900" fill="#171412">人</text><text x="925" y="414" text-anchor="middle" font-family="'LXGW WenKai','PingFang SC','Microsoft YaHei',Arial,sans-serif" font-size="22" font-weight="900" fill="#69645d">+ AI</text><g>
    <g opacity="1">
    <path d="M 789 277 L 845 276 Q 865 276 864 293 L 863 293 Q 864 311 847 310 L 790 309 Q 771 310 772 293 L 773 293 Q 772 276 789 277 Z" fill="#cfe1d6" stroke="#171412" stroke-width="2" stroke-linejoin="round"/>
    <path d="M 791 279 L 848 278 Q 862 277 862 294 L 865 291 Q 863 308 846 309 L 787 311 Q 773 308 774 292 L 771 295 Q 773 277 791 279 Z" fill="none" stroke="#171412" stroke-width="1.2" stroke-linejoin="round" opacity=".45"/>
  </g>
    <text x="818" y="299" text-anchor="middle" font-family="'LXGW WenKai','PingFang SC','Microsoft YaHei',Arial,sans-serif" font-size="17" font-weight="800" fill="#171412">机会</text>
  </g><g>
    <g opacity="1">
    <path d="M 947 263 L 1003 262 Q 1023 262 1022 279 L 1021 279 Q 1022 297 1005 296 L 948 295 Q 929 296 930 279 L 931 279 Q 930 262 947 263 Z" fill="#cfe1d6" stroke="#171412" stroke-width="2" stroke-linejoin="round"/>
    <path d="M 949 265 L 1006 264 Q 1020 263 1020 280 L 1023 277 Q 1021 294 1004 295 L 945 297 Q 931 294 932 278 L 929 281 Q 931 263 949 265 Z" fill="none" stroke="#171412" stroke-width="1.2" stroke-linejoin="round" opacity=".45"/>
  </g>
    <text x="976" y="285" text-anchor="middle" font-family="'LXGW WenKai','PingFang SC','Microsoft YaHei',Arial,sans-serif" font-size="17" font-weight="800" fill="#171412">需求</text>
  </g><g>
    <g opacity="1">
    <path d="M 1067 327 L 1123 326 Q 1143 326 1142 343 L 1141 343 Q 1142 361 1125 360 L 1068 359 Q 1049 360 1050 343 L 1051 343 Q 1050 326 1067 327 Z" fill="#cfe1d6" stroke="#171412" stroke-width="2" stroke-linejoin="round"/>
    <path d="M 1069 329 L 1126 328 Q 1140 327 1140 344 L 1143 341 Q 1141 358 1124 359 L 1065 361 Q 1051 358 1052 342 L 1049 345 Q 1051 327 1069 329 Z" fill="none" stroke="#171412" stroke-width="1.2" stroke-linejoin="round" opacity=".45"/>
  </g>
    <text x="1096" y="349" text-anchor="middle" font-family="'LXGW WenKai','PingFang SC','Microsoft YaHei',Arial,sans-serif" font-size="17" font-weight="800" fill="#171412">设计</text>
  </g><g>
    <g opacity="1">
    <path d="M 1067 467 L 1123 466 Q 1143 466 1142 483 L 1141 483 Q 1142 501 1125 500 L 1068 499 Q 1049 500 1050 483 L 1051 483 Q 1050 466 1067 467 Z" fill="#cfe1d6" stroke="#171412" stroke-width="2" stroke-linejoin="round"/>
    <path d="M 1069 469 L 1126 468 Q 1140 467 1140 484 L 1143 481 Q 1141 498 1124 499 L 1065 501 Q 1051 498 1052 482 L 1049 485 Q 1051 467 1069 469 Z" fill="none" stroke="#171412" stroke-width="1.2" stroke-linejoin="round" opacity=".45"/>
  </g>
    <text x="1096" y="489" text-anchor="middle" font-family="'LXGW WenKai','PingFang SC','Microsoft YaHei',Arial,sans-serif" font-size="17" font-weight="800" fill="#171412">开发</text>
  </g><g>
    <g opacity="1">
    <path d="M 947 541 L 1003 540 Q 1023 540 1022 557 L 1021 557 Q 1022 575 1005 574 L 948 573 Q 929 574 930 557 L 931 557 Q 930 540 947 541 Z" fill="#cfe1d6" stroke="#171412" stroke-width="2" stroke-linejoin="round"/>
    <path d="M 949 543 L 1006 542 Q 1020 541 1020 558 L 1023 555 Q 1021 572 1004 573 L 945 575 Q 931 572 932 556 L 929 559 Q 931 541 949 543 Z" fill="none" stroke="#171412" stroke-width="1.2" stroke-linejoin="round" opacity=".45"/>
  </g>
    <text x="976" y="563" text-anchor="middle" font-family="'LXGW WenKai','PingFang SC','Microsoft YaHei',Arial,sans-serif" font-size="17" font-weight="800" fill="#171412">验证</text>
  </g><g>
    <g opacity="1">
    <path d="M 789 497 L 845 496 Q 865 496 864 513 L 863 513 Q 864 531 847 530 L 790 529 Q 771 530 772 513 L 773 513 Q 772 496 789 497 Z" fill="#cfe1d6" stroke="#171412" stroke-width="2" stroke-linejoin="round"/>
    <path d="M 791 499 L 848 498 Q 862 497 862 514 L 865 511 Q 863 528 846 529 L 787 531 Q 773 528 774 512 L 771 515 Q 773 497 791 499 Z" fill="none" stroke="#171412" stroke-width="1.2" stroke-linejoin="round" opacity=".45"/>
  </g>
    <text x="818" y="519" text-anchor="middle" font-family="'LXGW WenKai','PingFang SC','Microsoft YaHei',Arial,sans-serif" font-size="17" font-weight="800" fill="#171412">运营</text>
  </g><path d="M 858 286 C 890 260 900 260 930 276" fill="none" stroke="#171412" stroke-width="4" stroke-linecap="round" stroke-linejoin="round" marker-end="url(#smallArrow)" opacity="1"/><path d="M 1008 280 C 1046 286 1060 306 1058 326" fill="none" stroke="#171412" stroke-width="4" stroke-linecap="round" stroke-linejoin="round" marker-end="url(#smallArrow)" opacity="1"/><path d="M 1094 360 L 1094 466" fill="none" stroke="#171412" stroke-width="4" stroke-linecap="round" stroke-linejoin="round" marker-end="url(#smallArrow)" opacity="1"/><path d="M 1050 504 C 1020 536 980 548 930 540" fill="none" stroke="#171412" stroke-width="4" stroke-linecap="round" stroke-linejoin="round" marker-end="url(#smallArrow)" opacity="1"/><path d="M 908 540 C 850 540 804 520 790 496" fill="none" stroke="#171412" stroke-width="4" stroke-linecap="round" stroke-linejoin="round" marker-end="url(#smallArrow)" opacity="1"/><path d="M 772 458 C 734 404 736 326 772 314" fill="none" stroke="#171412" stroke-width="4" stroke-linecap="round" stroke-linejoin="round" marker-end="url(#smallArrow)" opacity="1"/><text x="916" y="604" text-anchor="middle" font-family="'LXGW WenKai','PingFang SC','Microsoft YaHei',Arial,sans-serif" font-size="23" font-weight="900" fill="#171412">不是亲手做所有事，而是理解完整闭环</text>
</svg>
