<svg xmlns="http://www.w3.org/2000/svg" width="1200" height="720" viewBox="0 0 1200 720" role="img" aria-labelledby="title desc">
  <title id="title">二、流程和文档弥补上下文损耗</title>
  <desc id="desc">流程的价值，是让异步角色重新看见同一件事</desc>
  <defs>
    <radialGradient id="paper" cx="50%" cy="45%" r="72%">
      <stop offset="0%" stop-color="#f8f1e3"/>
      <stop offset="100%" stop-color="#f2ead9"/>
    </radialGradient>
    <marker id="arrow" viewBox="0 0 12 12" refX="10" refY="6" markerWidth="13" markerHeight="13" orient="auto">
      <path d="M 1 1 L 11 6 L 1 11 z" fill="#171412" stroke="#171412" stroke-width="1"/>
    </marker>
    <marker id="smallArrow" viewBox="0 0 10 10" refX="8" refY="5" markerWidth="8" markerHeight="8" orient="auto">
      <path d="M 1 1 L 9 5 L 1 9 z" fill="#171412"/>
    </marker>
    <filter id="softShadow" x="-20%" y="-20%" width="140%" height="140%">
      <feDropShadow dx="0" dy="10" stdDeviation="8" flood-color="#161412" flood-opacity=".10"/>
    </filter>
  </defs>
  <rect width="1200" height="720" fill="url(#paper)"/>
  <path d="M 40 654 C 250 690 510 674 694 698 C 856 718 1010 696 1160 666" fill="none" stroke="#e6ddca" stroke-width="4" opacity=".6"/>
  <path d="M 34 22 C 230 10 460 18 690 12 C 880 8 1030 12 1166 24" fill="none" stroke="#efe5d0" stroke-width="4" opacity=".42"/>
  <text x="600" y="56" text-anchor="middle" font-family="'LXGW WenKai','PingFang SC','Microsoft YaHei',Arial,sans-serif" font-size="40" font-weight="900" fill="#171412">二、流程和文档弥补上下文损耗</text>
  <text x="600" y="92" text-anchor="middle" font-family="'LXGW WenKai','PingFang SC','Microsoft YaHei',Arial,sans-serif" font-size="22" font-weight="700" fill="#69645d">流程的价值，是让异步角色重新看见同一件事</text>
  <text x="235" y="142" text-anchor="middle" font-family="'LXGW WenKai','PingFang SC','Microsoft YaHei',Arial,sans-serif" font-size="34" font-weight="900" fill="#df765d">信息损耗</text><g>
    <g opacity="1">
    <path d="M 80 197 L 464 196 Q 479 196 478 208 L 477 556 Q 478 569 466 568 L 81 567 Q 67 568 68 556 L 69 208 Q 68 196 80 197 Z" fill="#fff8eb" stroke="#171412" stroke-width="3" stroke-linejoin="round"/>
    <path d="M 82 199 L 467 198 Q 476 197 476 209 L 479 554 Q 477 566 465 567 L 78 569 Q 69 566 70 555 L 67 210 Q 69 197 82 199 Z" fill="none" stroke="#171412" stroke-width="1.6500000000000001" stroke-linejoin="round" opacity=".45"/>
  </g>
    <path d="M 69 238 L 477 236" stroke="#171412" stroke-width="3"/>
    <path d="M 80 198 L 466 197 Q 478 197 477 211 L 477 237 L 69 238 L 69 210 Q 69 199 80 198 Z" fill="#df765d" opacity=".95" stroke="#171412" stroke-width="2.5"/>
    <circle cx="90" cy="218" r="7" fill="#df765d" stroke="#171412" stroke-width="2"/>
    <circle cx="114" cy="218" r="7" fill="#e9c46a" stroke="#171412" stroke-width="2"/>
    <circle cx="138" cy="218" r="7" fill="#91bba5" stroke="#171412" stroke-width="2"/>
    <text x="273" y="224" text-anchor="middle" font-family="'LXGW WenKai','PingFang SC','Microsoft YaHei',Arial,sans-serif" font-size="20" font-weight="800" fill="#171412">文档与会议堆叠</text>
  </g><g>
    <g opacity="1">
    <path d="M 115 259 L 243 258 Q 256 258 255 268 L 254 306 Q 255 317 245 316 L 116 315 Q 104 316 105 306 L 106 268 Q 105 258 115 259 Z" fill="#f3b29f" stroke="#171412" stroke-width="3" stroke-linejoin="round"/>
    <path d="M 117 261 L 246 260 Q 253 259 253 269 L 256 304 Q 254 314 244 315 L 113 317 Q 106 314 107 305 L 104 270 Q 106 259 117 261 Z" fill="none" stroke="#171412" stroke-width="1.6500000000000001" stroke-linejoin="round" opacity=".45"/>
  </g>
    <text x="180" y="294" text-anchor="middle" font-family="'LXGW WenKai','PingFang SC','Microsoft YaHei',Arial,sans-serif" font-size="19" font-weight="800" fill="#171412">PRD</text>
    
    
  </g><g>
    <g opacity="1">
    <path d="M 290 259 L 418 258 Q 431 258 430 268 L 429 306 Q 430 317 420 316 L 291 315 Q 279 316 280 306 L 281 268 Q 280 258 290 259 Z" fill="#fff8eb" stroke="#171412" stroke-width="3" stroke-linejoin="round"/>
    <path d="M 292 261 L 421 260 Q 428 259 428 269 L 431 304 Q 429 314 419 315 L 288 317 Q 281 314 282 305 L 279 270 Q 281 259 292 261 Z" fill="none" stroke="#171412" stroke-width="1.6500000000000001" stroke-linejoin="round" opacity=".45"/>
  </g>
    <text x="355" y="294" text-anchor="middle" font-family="'LXGW WenKai','PingFang SC','Microsoft YaHei',Arial,sans-serif" font-size="19" font-weight="800" fill="#171412">概要设计</text>
    
    
  </g><g>
    <g opacity="1">
    <path d="M 115 343 L 243 342 Q 256 342 255 352 L 254 390 Q 255 401 245 400 L 116 399 Q 104 400 105 390 L 106 352 Q 105 342 115 343 Z" fill="#f3b29f" stroke="#171412" stroke-width="3" stroke-linejoin="round"/>
    <path d="M 117 345 L 246 344 Q 253 343 253 353 L 256 388 Q 254 398 244 399 L 113 401 Q 106 398 107 389 L 104 354 Q 106 343 117 345 Z" fill="none" stroke="#171412" stroke-width="1.6500000000000001" stroke-linejoin="round" opacity=".45"/>
  </g>
    <text x="180" y="378" text-anchor="middle" font-family="'LXGW WenKai','PingFang SC','Microsoft YaHei',Arial,sans-serif" font-size="19" font-weight="800" fill="#171412">接口文档</text>
    
    
  </g><g>
    <g opacity="1">
    <path d="M 290 343 L 418 342 Q 431 342 430 352 L 429 390 Q 430 401 420 400 L 291 399 Q 279 400 280 390 L 281 352 Q 280 342 290 343 Z" fill="#fff8eb" stroke="#171412" stroke-width="3" stroke-linejoin="round"/>
    <path d="M 292 345 L 421 344 Q 428 343 428 353 L 431 388 Q 429 398 419 399 L 288 401 Q 281 398 282 389 L 279 354 Q 281 343 292 345 Z" fill="none" stroke="#171412" stroke-width="1.6500000000000001" stroke-linejoin="round" opacity=".45"/>
  </g>
    <text x="355" y="378" text-anchor="middle" font-family="'LXGW WenKai','PingFang SC','Microsoft YaHei',Arial,sans-serif" font-size="19" font-weight="800" fill="#171412">测试用例</text>
    
    
  </g><g>
    <g opacity="1">
    <path d="M 115 427 L 243 426 Q 256 426 255 436 L 254 474 Q 255 485 245 484 L 116 483 Q 104 484 105 474 L 106 436 Q 105 426 115 427 Z" fill="#f3b29f" stroke="#171412" stroke-width="3" stroke-linejoin="round"/>
    <path d="M 117 429 L 246 428 Q 253 427 253 437 L 256 472 Q 254 482 244 483 L 113 485 Q 106 482 107 473 L 104 438 Q 106 427 117 429 Z" fill="none" stroke="#171412" stroke-width="1.6500000000000001" stroke-linejoin="round" opacity=".45"/>
  </g>
    <text x="180" y="462" text-anchor="middle" font-family="'LXGW WenKai','PingFang SC','Microsoft YaHei',Arial,sans-serif" font-size="19" font-weight="800" fill="#171412">上线检查</text>
    
    
  </g><g>
    <g opacity="1">
    <path d="M 290 427 L 418 426 Q 431 426 430 436 L 429 474 Q 430 485 420 484 L 291 483 Q 279 484 280 474 L 281 436 Q 280 426 290 427 Z" fill="#fff8eb" stroke="#171412" stroke-width="3" stroke-linejoin="round"/>
    <path d="M 292 429 L 421 428 Q 428 427 428 437 L 431 472 Q 429 482 419 483 L 288 485 Q 281 482 282 473 L 279 438 Q 281 427 292 429 Z" fill="none" stroke="#171412" stroke-width="1.6500000000000001" stroke-linejoin="round" opacity=".45"/>
  </g>
    <text x="355" y="462" text-anchor="middle" font-family="'LXGW WenKai','PingFang SC','Microsoft YaHei',Arial,sans-serif" font-size="19" font-weight="800" fill="#171412">复盘</text>
    
    
  </g><path d="M 180 286 C 260 236 286 324 356 284" fill="none" stroke="#171412" stroke-width="3" stroke-linecap="round" stroke-linejoin="round" opacity="0.78"/><path d="M 356 286 C 436 248 118 400 188 370" fill="none" stroke="#171412" stroke-width="3" stroke-linecap="round" stroke-linejoin="round" opacity="0.78"/><path d="M 180 370 C 260 344 285 474 355 454" fill="none" stroke="#171412" stroke-width="3" stroke-linecap="round" stroke-linejoin="round" opacity="0.78"/><path d="M 354 370 C 434 356 108 464 178 454" fill="none" stroke="#171412" stroke-width="3" stroke-linecap="round" stroke-linejoin="round" opacity="0.78"/><path d="M 180 455 C 260 453 284 286 354 286" fill="none" stroke="#171412" stroke-width="3" stroke-linecap="round" stroke-linejoin="round" opacity="0.78"/><path d="M 354 455 C 434 465 110 276 180 286" fill="none" stroke="#171412" stroke-width="3" stroke-linecap="round" stroke-linejoin="round" opacity="0.78"/><path d="M 488 380 C 570 338 616 338 690 380" fill="none" stroke="#171412" stroke-width="12" stroke-linecap="round" stroke-linejoin="round" marker-end="url(#arrow)" opacity="1"/><g>
    <g opacity="1">
    <path d="M 550 333 L 660 332 Q 680 332 679 349 L 678 349 Q 679 367 662 366 L 551 365 Q 532 366 533 349 L 534 349 Q 533 332 550 333 Z" fill="#fff8eb" stroke="#171412" stroke-width="2" stroke-linejoin="round"/>
    <path d="M 552 335 L 663 334 Q 677 333 677 350 L 680 347 Q 678 364 661 365 L 548 367 Q 534 364 535 348 L 532 351 Q 534 333 552 335 Z" fill="none" stroke="#171412" stroke-width="1.2" stroke-linejoin="round" opacity=".45"/>
  </g>
    <text x="606" y="355" text-anchor="middle" font-family="'LXGW WenKai','PingFang SC','Microsoft YaHei',Arial,sans-serif" font-size="17" font-weight="800" fill="#171412">上下文对齐</text>
  </g><text x="928" y="142" text-anchor="middle" font-family="'LXGW WenKai','PingFang SC','Microsoft YaHei',Arial,sans-serif" font-size="34" font-weight="900" fill="#91bba5">共同语义</text><g>
    <g opacity="1">
    <path d="M 728 197 L 1114 196 Q 1129 196 1128 208 L 1127 556 Q 1128 569 1116 568 L 729 567 Q 715 568 716 556 L 717 208 Q 716 196 728 197 Z" fill="#fff8eb" stroke="#171412" stroke-width="3" stroke-linejoin="round"/>
    <path d="M 730 199 L 1117 198 Q 1126 197 1126 209 L 1129 554 Q 1127 566 1115 567 L 726 569 Q 717 566 718 555 L 715 210 Q 717 197 730 199 Z" fill="none" stroke="#171412" stroke-width="1.6500000000000001" stroke-linejoin="round" opacity=".45"/>
  </g>
    <path d="M 717 238 L 1127 236" stroke="#171412" stroke-width="3"/>
    <path d="M 728 198 L 1116 197 Q 1128 197 1127 211 L 1127 237 L 717 238 L 717 210 Q 717 199 728 198 Z" fill="#91bba5" opacity=".95" stroke="#171412" stroke-width="2.5"/>
    <circle cx="738" cy="218" r="7" fill="#df765d" stroke="#171412" stroke-width="2"/>
    <circle cx="762" cy="218" r="7" fill="#e9c46a" stroke="#171412" stroke-width="2"/>
    <circle cx="786" cy="218" r="7" fill="#91bba5" stroke="#171412" stroke-width="2"/>
    <text x="922" y="224" text-anchor="middle" font-family="'LXGW WenKai','PingFang SC','Microsoft YaHei',Arial,sans-serif" font-size="20" font-weight="800" fill="#171412">一张工程判断清单</text>
  </g><g>
    <g opacity="1">
    <path d="M 770 271 L 896 270 Q 909 270 908 280 L 907 324 Q 908 335 898 334 L 771 333 Q 759 334 760 324 L 761 280 Q 760 270 770 271 Z" fill="#cfe1d6" stroke="#171412" stroke-width="3" stroke-linejoin="round"/>
    <path d="M 772 273 L 899 272 Q 906 271 906 281 L 909 322 Q 907 332 897 333 L 768 335 Q 761 332 762 323 L 759 282 Q 761 271 772 273 Z" fill="none" stroke="#171412" stroke-width="1.6500000000000001" stroke-linejoin="round" opacity=".45"/>
  </g>
    <text x="834" y="306" text-anchor="middle" font-family="'LXGW WenKai','PingFang SC','Microsoft YaHei',Arial,sans-serif" font-size="21" font-weight="800" fill="#171412">目标</text>
    <text x="834" y="337" text-anchor="middle" font-family="'LXGW WenKai','PingFang SC','Microsoft YaHei',Arial,sans-serif" font-size="17" font-weight="600" fill="#69645d">做什么</text>
    
  </g><g>
    <g opacity="1">
    <path d="M 955 271 L 1081 270 Q 1094 270 1093 280 L 1092 324 Q 1093 335 1083 334 L 956 333 Q 944 334 945 324 L 946 280 Q 945 270 955 271 Z" fill="#cfe1d6" stroke="#171412" stroke-width="3" stroke-linejoin="round"/>
    <path d="M 957 273 L 1084 272 Q 1091 271 1091 281 L 1094 322 Q 1092 332 1082 333 L 953 335 Q 946 332 947 323 L 944 282 Q 946 271 957 273 Z" fill="none" stroke="#171412" stroke-width="1.6500000000000001" stroke-linejoin="round" opacity=".45"/>
  </g>
    <text x="1019" y="306" text-anchor="middle" font-family="'LXGW WenKai','PingFang SC','Microsoft YaHei',Arial,sans-serif" font-size="21" font-weight="800" fill="#171412">边界</text>
    <text x="1019" y="337" text-anchor="middle" font-family="'LXGW WenKai','PingFang SC','Microsoft YaHei',Arial,sans-serif" font-size="17" font-weight="600" fill="#69645d">不做什么</text>
    
  </g><g>
    <g opacity="1">
    <path d="M 770 383 L 896 382 Q 909 382 908 392 L 907 436 Q 908 447 898 446 L 771 445 Q 759 446 760 436 L 761 392 Q 760 382 770 383 Z" fill="#cfe1d6" stroke="#171412" stroke-width="3" stroke-linejoin="round"/>
    <path d="M 772 385 L 899 384 Q 906 383 906 393 L 909 434 Q 907 444 897 445 L 768 447 Q 761 444 762 435 L 759 394 Q 761 383 772 385 Z" fill="none" stroke="#171412" stroke-width="1.6500000000000001" stroke-linejoin="round" opacity=".45"/>
  </g>
    <text x="834" y="418" text-anchor="middle" font-family="'LXGW WenKai','PingFang SC','Microsoft YaHei',Arial,sans-serif" font-size="21" font-weight="800" fill="#171412">风险</text>
    <text x="834" y="449" text-anchor="middle" font-family="'LXGW WenKai','PingFang SC','Microsoft YaHei',Arial,sans-serif" font-size="17" font-weight="600" fill="#69645d">哪里会错</text>
    
  </g><g>
    <g opacity="1">
    <path d="M 955 383 L 1081 382 Q 1094 382 1093 392 L 1092 436 Q 1093 447 1083 446 L 956 445 Q 944 446 945 436 L 946 392 Q 945 382 955 383 Z" fill="#cfe1d6" stroke="#171412" stroke-width="3" stroke-linejoin="round"/>
    <path d="M 957 385 L 1084 384 Q 1091 383 1091 393 L 1094 434 Q 1092 444 1082 445 L 953 447 Q 946 444 947 435 L 944 394 Q 946 383 957 385 Z" fill="none" stroke="#171412" stroke-width="1.6500000000000001" stroke-linejoin="round" opacity=".45"/>
  </g>
    <text x="1019" y="418" text-anchor="middle" font-family="'LXGW WenKai','PingFang SC','Microsoft YaHei',Arial,sans-serif" font-size="21" font-weight="800" fill="#171412">验证</text>
    <text x="1019" y="449" text-anchor="middle" font-family="'LXGW WenKai','PingFang SC','Microsoft YaHei',Arial,sans-serif" font-size="17" font-weight="600" fill="#69645d">如何证明</text>
    
  </g><text x="800" y="505" text-anchor="start" font-family="'LXGW WenKai','PingFang SC','Microsoft YaHei',Arial,sans-serif" font-size="25" font-weight="900" fill="#171412">•</text><text x="824" y="505" text-anchor="start" font-family="'LXGW WenKai','PingFang SC','Microsoft YaHei',Arial,sans-serif" font-size="18" font-weight="650" fill="#171412">需求评审：目标一致</text>
<text x="800" y="533" text-anchor="start" font-family="'LXGW WenKai','PingFang SC','Microsoft YaHei',Arial,sans-serif" font-size="25" font-weight="900" fill="#171412">•</text><text x="824" y="533" text-anchor="start" font-family="'LXGW WenKai','PingFang SC','Microsoft YaHei',Arial,sans-serif" font-size="18" font-weight="650" fill="#171412">转测：范围明确</text>
<text x="800" y="561" text-anchor="start" font-family="'LXGW WenKai','PingFang SC','Microsoft YaHei',Arial,sans-serif" font-size="25" font-weight="900" fill="#171412">•</text><text x="824" y="561" text-anchor="start" font-family="'LXGW WenKai','PingFang SC','Microsoft YaHei',Arial,sans-serif" font-size="18" font-weight="650" fill="#171412">上线：风险可控</text>
</svg>
