<svg xmlns="http://www.w3.org/2000/svg" width="1200" height="720" viewBox="0 0 1200 720" role="img" aria-labelledby="title desc">
  <title id="title">九、OPC 能力会变得更现实</title>
  <desc id="desc">AI 降低启动门槛，软件工程判断力决定上限</desc>
  <defs>
    <radialGradient id="paper" cx="50%" cy="45%" r="72%">
      <stop offset="0%" stop-color="#f8f1e3"/>
      <stop offset="100%" stop-color="#f2ead9"/>
    </radialGradient>
    <marker id="arrow" viewBox="0 0 14 14" refX="13" refY="7" markerWidth="34" markerHeight="34" markerUnits="userSpaceOnUse" orient="auto">
      <path d="M 1 1 L 13 7 L 1 13 z" fill="#171412" stroke="#171412" stroke-width="1"/>
    </marker>
    <marker id="smallArrow" viewBox="0 0 10 10" refX="9" refY="5" markerWidth="16" markerHeight="16" markerUnits="userSpaceOnUse" orient="auto">
      <path d="M 1 1 L 9 5 L 1 9 z" fill="#171412"/>
    </marker>
    <filter id="softShadow" x="-20%" y="-20%" width="140%" height="140%">
      <feDropShadow dx="0" dy="10" stdDeviation="8" flood-color="#161412" flood-opacity=".10"/>
    </filter>
  </defs>
  <rect width="1200" height="720" fill="url(#paper)"/>
  <path d="M 40 654 C 250 690 510 674 694 698 C 856 718 1010 696 1160 666" fill="none" stroke="#e6ddca" stroke-width="4" opacity=".6"/>
  <path d="M 34 22 C 230 10 460 18 690 12 C 880 8 1030 12 1166 24" fill="none" stroke="#efe5d0" stroke-width="4" opacity=".42"/>
  <text x="600" y="56" text-anchor="middle" font-family="'LXGW WenKai','PingFang SC','Microsoft YaHei',Arial,sans-serif" font-size="40" font-weight="900" fill="#171412">九、OPC 能力会变得更现实</text>
  <text x="600" y="92" text-anchor="middle" font-family="'LXGW WenKai','PingFang SC','Microsoft YaHei',Arial,sans-serif" font-size="22" font-weight="700" fill="#69645d">AI 降低启动门槛，软件工程判断力决定上限</text>
  <text x="224" y="146" text-anchor="middle" font-family="'LXGW WenKai','PingFang SC','Microsoft YaHei',Arial,sans-serif" font-size="31" font-weight="900" fill="#df765d">以前：需要小团队</text><g>
    <g opacity="1">
    <rect x="70" y="214" width="380" height="328" rx="12" fill="#fff8eb" stroke="#171412" stroke-width="3" stroke-linejoin="round"/>
    <rect x="72" y="216" width="376" height="324" rx="10" fill="none" stroke="#171412" stroke-width="1.5" stroke-linejoin="round" opacity=".35"/>
  </g>
    <path d="M 82 215.5 L 438 215.5 Q 448.5 215.5 448.5 226 L 448.5 256 L 71.5 256 L 71.5 226 Q 71.5 215.5 82 215.5 Z" fill="#df765d" opacity=".95" stroke="#171412" stroke-width="2.5"/>
    <path d="M 71.5 256 L 448.5 256" stroke="#171412" stroke-width="3"/>
    <circle cx="92" cy="236" r="7" fill="#df765d" stroke="#171412" stroke-width="2"/>
    <circle cx="116" cy="236" r="7" fill="#e9c46a" stroke="#171412" stroke-width="2"/>
    <circle cx="140" cy="236" r="7" fill="#91bba5" stroke="#171412" stroke-width="2"/>
    <text x="260" y="242" text-anchor="middle" font-family="'LXGW WenKai','PingFang SC','Microsoft YaHei',Arial,sans-serif" font-size="20" font-weight="800" fill="#171412">多人启动产品</text>
  </g><g>
    <g opacity="1">
    <rect x="104" y="280" width="86" height="34" rx="17" fill="#f3b29f" stroke="#171412" stroke-width="2" stroke-linejoin="round"/>
    <rect x="106" y="282" width="82" height="30" rx="15" fill="none" stroke="#171412" stroke-width="1.2" stroke-linejoin="round" opacity=".35"/>
  </g>
    <text x="147" y="303" text-anchor="middle" font-family="'LXGW WenKai','PingFang SC','Microsoft YaHei',Arial,sans-serif" font-size="17" font-weight="800" fill="#171412">市场</text>
  </g><g>
    <g opacity="1">
    <rect x="209" y="280" width="86" height="34" rx="17" fill="#fff8eb" stroke="#171412" stroke-width="2" stroke-linejoin="round"/>
    <rect x="211" y="282" width="82" height="30" rx="15" fill="none" stroke="#171412" stroke-width="1.2" stroke-linejoin="round" opacity=".35"/>
  </g>
    <text x="252" y="303" text-anchor="middle" font-family="'LXGW WenKai','PingFang SC','Microsoft YaHei',Arial,sans-serif" font-size="17" font-weight="800" fill="#171412">产品</text>
  </g><g>
    <g opacity="1">
    <rect x="314" y="280" width="86" height="34" rx="17" fill="#f3b29f" stroke="#171412" stroke-width="2" stroke-linejoin="round"/>
    <rect x="316" y="282" width="82" height="30" rx="15" fill="none" stroke="#171412" stroke-width="1.2" stroke-linejoin="round" opacity=".35"/>
  </g>
    <text x="357" y="303" text-anchor="middle" font-family="'LXGW WenKai','PingFang SC','Microsoft YaHei',Arial,sans-serif" font-size="17" font-weight="800" fill="#171412">设计</text>
  </g><g>
    <g opacity="1">
    <rect x="104" y="358" width="86" height="34" rx="17" fill="#fff8eb" stroke="#171412" stroke-width="2" stroke-linejoin="round"/>
    <rect x="106" y="360" width="82" height="30" rx="15" fill="none" stroke="#171412" stroke-width="1.2" stroke-linejoin="round" opacity=".35"/>
  </g>
    <text x="147" y="381" text-anchor="middle" font-family="'LXGW WenKai','PingFang SC','Microsoft YaHei',Arial,sans-serif" font-size="17" font-weight="800" fill="#171412">前端</text>
  </g><g>
    <g opacity="1">
    <rect x="209" y="358" width="86" height="34" rx="17" fill="#f3b29f" stroke="#171412" stroke-width="2" stroke-linejoin="round"/>
    <rect x="211" y="360" width="82" height="30" rx="15" fill="none" stroke="#171412" stroke-width="1.2" stroke-linejoin="round" opacity=".35"/>
  </g>
    <text x="252" y="381" text-anchor="middle" font-family="'LXGW WenKai','PingFang SC','Microsoft YaHei',Arial,sans-serif" font-size="17" font-weight="800" fill="#171412">后端</text>
  </g><g>
    <g opacity="1">
    <rect x="314" y="358" width="86" height="34" rx="17" fill="#fff8eb" stroke="#171412" stroke-width="2" stroke-linejoin="round"/>
    <rect x="316" y="360" width="82" height="30" rx="15" fill="none" stroke="#171412" stroke-width="1.2" stroke-linejoin="round" opacity=".35"/>
  </g>
    <text x="357" y="381" text-anchor="middle" font-family="'LXGW WenKai','PingFang SC','Microsoft YaHei',Arial,sans-serif" font-size="17" font-weight="800" fill="#171412">测试</text>
  </g><g>
    <g opacity="1">
    <rect x="104" y="436" width="86" height="34" rx="17" fill="#f3b29f" stroke="#171412" stroke-width="2" stroke-linejoin="round"/>
    <rect x="106" y="438" width="82" height="30" rx="15" fill="none" stroke="#171412" stroke-width="1.2" stroke-linejoin="round" opacity=".35"/>
  </g>
    <text x="147" y="459" text-anchor="middle" font-family="'LXGW WenKai','PingFang SC','Microsoft YaHei',Arial,sans-serif" font-size="17" font-weight="800" fill="#171412">运维</text>
  </g><path d="M 490 378 L 686 378" fill="none" stroke="#171412" stroke-width="10" stroke-linecap="round" stroke-linejoin="round" marker-end="url(#arrow)" opacity="1"/>
  <g>
    <g opacity="1">
    <rect x="515" y="361" width="146" height="34" rx="17" fill="#fff8eb" stroke="#171412" stroke-width="2" stroke-linejoin="round"/>
    <rect x="517" y="363" width="142" height="30" rx="15" fill="none" stroke="#171412" stroke-width="1.2" stroke-linejoin="round" opacity=".35"/>
  </g>
    <text x="588" y="384" text-anchor="middle" font-family="'LXGW WenKai','PingFang SC','Microsoft YaHei',Arial,sans-serif" font-size="17" font-weight="800" fill="#171412">AI 扩大半径</text>
  </g><text x="930" y="146" text-anchor="middle" font-family="'LXGW WenKai','PingFang SC','Microsoft YaHei',Arial,sans-serif" font-size="31" font-weight="900" fill="#91bba5">以后：OPC 闭环</text><g>
    <g opacity="1">
    <rect x="700" y="214" width="430" height="328" rx="12" fill="#fff8eb" stroke="#171412" stroke-width="3" stroke-linejoin="round"/>
    <rect x="702" y="216" width="426" height="324" rx="10" fill="none" stroke="#171412" stroke-width="1.5" stroke-linejoin="round" opacity=".35"/>
  </g>
    <path d="M 712 215.5 L 1118 215.5 Q 1128.5 215.5 1128.5 226 L 1128.5 256 L 701.5 256 L 701.5 226 Q 701.5 215.5 712 215.5 Z" fill="#91bba5" opacity=".95" stroke="#171412" stroke-width="2.5"/>
    <path d="M 701.5 256 L 1128.5 256" stroke="#171412" stroke-width="3"/>
    <circle cx="722" cy="236" r="7" fill="#df765d" stroke="#171412" stroke-width="2"/>
    <circle cx="746" cy="236" r="7" fill="#e9c46a" stroke="#171412" stroke-width="2"/>
    <circle cx="770" cy="236" r="7" fill="#91bba5" stroke="#171412" stroke-width="2"/>
    <text x="915" y="242" text-anchor="middle" font-family="'LXGW WenKai','PingFang SC','Microsoft YaHei',Arial,sans-serif" font-size="20" font-weight="800" fill="#171412">一个人 + AI 工具组</text>
  </g><g opacity="1">
    <rect x="870" y="346" width="110" height="106" rx="28" fill="#fff8eb" stroke="#171412" stroke-width="4" stroke-linejoin="round"/>
    <rect x="872" y="348" width="106" height="102" rx="26" fill="none" stroke="#171412" stroke-width="2" stroke-linejoin="round" opacity=".35"/>
  </g><text x="925" y="396" text-anchor="middle" font-family="'LXGW WenKai','PingFang SC','Microsoft YaHei',Arial,sans-serif" font-size="38" font-weight="900" fill="#171412">人</text><text x="925" y="426" text-anchor="middle" font-family="'LXGW WenKai','PingFang SC','Microsoft YaHei',Arial,sans-serif" font-size="22" font-weight="900" fill="#69645d">+ AI</text><g>
    <g opacity="1">
    <rect x="760" y="286" width="92" height="34" rx="17" fill="#cfe1d6" stroke="#171412" stroke-width="2" stroke-linejoin="round"/>
    <rect x="762" y="288" width="88" height="30" rx="15" fill="none" stroke="#171412" stroke-width="1.2" stroke-linejoin="round" opacity=".35"/>
  </g>
    <text x="806" y="309" text-anchor="middle" font-family="'LXGW WenKai','PingFang SC','Microsoft YaHei',Arial,sans-serif" font-size="17" font-weight="800" fill="#171412">机会</text>
  </g><g>
    <g opacity="1">
    <rect x="936" y="286" width="92" height="34" rx="17" fill="#cfe1d6" stroke="#171412" stroke-width="2" stroke-linejoin="round"/>
    <rect x="938" y="288" width="88" height="30" rx="15" fill="none" stroke="#171412" stroke-width="1.2" stroke-linejoin="round" opacity=".35"/>
  </g>
    <text x="982" y="309" text-anchor="middle" font-family="'LXGW WenKai','PingFang SC','Microsoft YaHei',Arial,sans-serif" font-size="17" font-weight="800" fill="#171412">需求</text>
  </g><g>
    <g opacity="1">
    <rect x="1032" y="358" width="92" height="34" rx="17" fill="#cfe1d6" stroke="#171412" stroke-width="2" stroke-linejoin="round"/>
    <rect x="1034" y="360" width="88" height="30" rx="15" fill="none" stroke="#171412" stroke-width="1.2" stroke-linejoin="round" opacity=".35"/>
  </g>
    <text x="1078" y="381" text-anchor="middle" font-family="'LXGW WenKai','PingFang SC','Microsoft YaHei',Arial,sans-serif" font-size="17" font-weight="800" fill="#171412">设计</text>
  </g><g>
    <g opacity="1">
    <rect x="1032" y="456" width="92" height="34" rx="17" fill="#cfe1d6" stroke="#171412" stroke-width="2" stroke-linejoin="round"/>
    <rect x="1034" y="458" width="88" height="30" rx="15" fill="none" stroke="#171412" stroke-width="1.2" stroke-linejoin="round" opacity=".35"/>
  </g>
    <text x="1078" y="479" text-anchor="middle" font-family="'LXGW WenKai','PingFang SC','Microsoft YaHei',Arial,sans-serif" font-size="17" font-weight="800" fill="#171412">开发</text>
  </g><g>
    <g opacity="1">
    <rect x="936" y="502" width="92" height="34" rx="17" fill="#cfe1d6" stroke="#171412" stroke-width="2" stroke-linejoin="round"/>
    <rect x="938" y="504" width="88" height="30" rx="15" fill="none" stroke="#171412" stroke-width="1.2" stroke-linejoin="round" opacity=".35"/>
  </g>
    <text x="982" y="525" text-anchor="middle" font-family="'LXGW WenKai','PingFang SC','Microsoft YaHei',Arial,sans-serif" font-size="17" font-weight="800" fill="#171412">验证</text>
  </g><g>
    <g opacity="1">
    <rect x="760" y="456" width="92" height="34" rx="17" fill="#cfe1d6" stroke="#171412" stroke-width="2" stroke-linejoin="round"/>
    <rect x="762" y="458" width="88" height="30" rx="15" fill="none" stroke="#171412" stroke-width="1.2" stroke-linejoin="round" opacity=".35"/>
  </g>
    <text x="806" y="479" text-anchor="middle" font-family="'LXGW WenKai','PingFang SC','Microsoft YaHei',Arial,sans-serif" font-size="17" font-weight="800" fill="#171412">运营</text>
  </g><path d="M 852 303 L 936 303" fill="none" stroke="#171412" stroke-width="4" stroke-linecap="round" stroke-linejoin="round" marker-end="url(#smallArrow)" opacity="1"/><path d="M 1028 303 L 1078 303 L 1078 358 L 1078 358" fill="none" stroke="#171412" stroke-width="4" stroke-linecap="round" stroke-linejoin="round" marker-end="url(#smallArrow)" opacity="1"/><path d="M 1078 392 L 1078 456" fill="none" stroke="#171412" stroke-width="4" stroke-linecap="round" stroke-linejoin="round" marker-end="url(#smallArrow)" opacity="1"/><path d="M 1032 473 L 1028 473 L 1028 519 L 1028 519" fill="none" stroke="#171412" stroke-width="4" stroke-linecap="round" stroke-linejoin="round" marker-end="url(#smallArrow)" opacity="1"/><path d="M 936 519 L 852 473" fill="none" stroke="#171412" stroke-width="4" stroke-linecap="round" stroke-linejoin="round" marker-end="url(#smallArrow)" opacity="1"/><path d="M 806 456 L 746 456 L 746 320 L 806 320" fill="none" stroke="#171412" stroke-width="4" stroke-linecap="round" stroke-linejoin="round" marker-end="url(#smallArrow)" opacity="1"/><text x="916" y="604" text-anchor="middle" font-family="'LXGW WenKai','PingFang SC','Microsoft YaHei',Arial,sans-serif" font-size="23" font-weight="900" fill="#171412">不是亲手做所有事，而是理解完整闭环</text>
</svg>
