<svg xmlns="http://www.w3.org/2000/svg" width="1200" height="720" viewBox="0 0 1200 720" role="img" aria-labelledby="title desc">
  <title id="title">八、软件工程的新核心：建模、实现、验证</title>
  <desc id="desc">角色标签会变软，工程闭环会变硬</desc>
  <defs>
    <radialGradient id="paper" cx="50%" cy="45%" r="72%">
      <stop offset="0%" stop-color="#f8f1e3"/>
      <stop offset="100%" stop-color="#f2ead9"/>
    </radialGradient>
    <marker id="arrow" viewBox="0 0 14 14" refX="13" refY="7" markerWidth="34" markerHeight="34" markerUnits="userSpaceOnUse" orient="auto">
      <path d="M 1 1 L 13 7 L 1 13 z" fill="#171412" stroke="#171412" stroke-width="1"/>
    </marker>
    <marker id="smallArrow" viewBox="0 0 10 10" refX="9" refY="5" markerWidth="16" markerHeight="16" markerUnits="userSpaceOnUse" orient="auto">
      <path d="M 1 1 L 9 5 L 1 9 z" fill="#171412"/>
    </marker>
    <filter id="softShadow" x="-20%" y="-20%" width="140%" height="140%">
      <feDropShadow dx="0" dy="10" stdDeviation="8" flood-color="#161412" flood-opacity=".10"/>
    </filter>
  </defs>
  <rect width="1200" height="720" fill="url(#paper)"/>
  <path d="M 40 654 C 250 690 510 674 694 698 C 856 718 1010 696 1160 666" fill="none" stroke="#e6ddca" stroke-width="4" opacity=".6"/>
  <path d="M 34 22 C 230 10 460 18 690 12 C 880 8 1030 12 1166 24" fill="none" stroke="#efe5d0" stroke-width="4" opacity=".42"/>
  <text x="600" y="56" text-anchor="middle" font-family="'LXGW WenKai','PingFang SC','Microsoft YaHei',Arial,sans-serif" font-size="40" font-weight="900" fill="#171412">八、软件工程的新核心：建模、实现、验证</text>
  <text x="600" y="92" text-anchor="middle" font-family="'LXGW WenKai','PingFang SC','Microsoft YaHei',Arial,sans-serif" font-size="22" font-weight="700" fill="#69645d">角色标签会变软，工程闭环会变硬</text>
  <text x="600" y="142" text-anchor="middle" font-family="'LXGW WenKai','PingFang SC','Microsoft YaHei',Arial,sans-serif" font-size="34" font-weight="900" fill="#91bba5">三类核心能力</text><g>
    <g opacity="1">
    <rect x="156" y="238" width="210" height="130" rx="10" fill="#cfe1d6" stroke="#171412" stroke-width="3" stroke-linejoin="round"/>
    <rect x="158" y="240" width="206" height="126" rx="8" fill="none" stroke="#171412" stroke-width="1.5" stroke-linejoin="round" opacity=".35"/>
  </g>
    <text x="261" y="278" text-anchor="middle" font-family="'LXGW WenKai','PingFang SC','Microsoft YaHei',Arial,sans-serif" font-size="27" font-weight="800" fill="#171412">业务建模</text>
    <text x="261" y="311" text-anchor="middle" font-family="'LXGW WenKai','PingFang SC','Microsoft YaHei',Arial,sans-serif" font-size="17" font-weight="600" fill="#69645d">目标 / 对象 / 规则</text>
    
  </g><g>
    <g opacity="1">
    <rect x="495" y="238" width="210" height="130" rx="10" fill="#fff8eb" stroke="#171412" stroke-width="3" stroke-linejoin="round"/>
    <rect x="497" y="240" width="206" height="126" rx="8" fill="none" stroke="#171412" stroke-width="1.5" stroke-linejoin="round" opacity=".35"/>
  </g>
    <text x="600" y="278" text-anchor="middle" font-family="'LXGW WenKai','PingFang SC','Microsoft YaHei',Arial,sans-serif" font-size="27" font-weight="800" fill="#171412">系统实现</text>
    <text x="600" y="311" text-anchor="middle" font-family="'LXGW WenKai','PingFang SC','Microsoft YaHei',Arial,sans-serif" font-size="17" font-weight="600" fill="#69645d">接口 / 数据 / 代码</text>
    
  </g><g>
    <g opacity="1">
    <rect x="834" y="238" width="210" height="130" rx="10" fill="#cfe1d6" stroke="#171412" stroke-width="3" stroke-linejoin="round"/>
    <rect x="836" y="240" width="206" height="126" rx="8" fill="none" stroke="#171412" stroke-width="1.5" stroke-linejoin="round" opacity=".35"/>
  </g>
    <text x="939" y="278" text-anchor="middle" font-family="'LXGW WenKai','PingFang SC','Microsoft YaHei',Arial,sans-serif" font-size="27" font-weight="800" fill="#171412">验证闭环</text>
    <text x="939" y="311" text-anchor="middle" font-family="'LXGW WenKai','PingFang SC','Microsoft YaHei',Arial,sans-serif" font-size="17" font-weight="600" fill="#69645d">测试 / 监控 / 反馈</text>
    
  </g><path d="M 366 302 C 420 280 446 280 495 302" fill="none" stroke="#171412" stroke-width="10" stroke-linecap="round" stroke-linejoin="round" marker-end="url(#arrow)" opacity="1"/><path d="M 705 302 C 760 280 784 280 834 302" fill="none" stroke="#171412" stroke-width="10" stroke-linecap="round" stroke-linejoin="round" marker-end="url(#arrow)" opacity="1"/><path d="M 940 370 C 850 585 360 585 255 370" fill="none" stroke="#171412" stroke-width="10" stroke-linecap="round" stroke-linejoin="round" marker-end="url(#arrow)" opacity="1"/><g>
    <g opacity="1">
    <rect x="515" y="530" width="210" height="34" rx="17" fill="#fff8eb" stroke="#171412" stroke-width="2" stroke-linejoin="round"/>
    <rect x="517" y="532" width="206" height="30" rx="15" fill="none" stroke="#171412" stroke-width="1.2" stroke-linejoin="round" opacity=".35"/>
  </g>
    <text x="620" y="553" text-anchor="middle" font-family="'LXGW WenKai','PingFang SC','Microsoft YaHei',Arial,sans-serif" font-size="17" font-weight="800" fill="#171412">反馈重新进入建模</text>
  </g><g>
    <g opacity="1">
    <rect x="232" y="432" width="200" height="92" rx="12" fill="#fff8eb" stroke="#171412" stroke-width="3" stroke-linejoin="round"/>
    <rect x="234" y="434" width="196" height="88" rx="10" fill="none" stroke="#171412" stroke-width="1.5" stroke-linejoin="round" opacity=".35"/>
  </g>
    <path d="M 244 433.5 L 420 433.5 Q 430.5 433.5 430.5 444 L 430.5 474 L 233.5 474 L 233.5 444 Q 233.5 433.5 244 433.5 Z" fill="#df765d" opacity=".95" stroke="#171412" stroke-width="2.5"/>
    <path d="M 233.5 474 L 430.5 474" stroke="#171412" stroke-width="3"/>
    <circle cx="254" cy="454" r="7" fill="#df765d" stroke="#171412" stroke-width="2"/>
    <circle cx="278" cy="454" r="7" fill="#e9c46a" stroke="#171412" stroke-width="2"/>
    <circle cx="302" cy="454" r="7" fill="#91bba5" stroke="#171412" stroke-width="2"/>
    <text x="358" y="460" text-anchor="middle" font-family="'LXGW WenKai','PingFang SC','Microsoft YaHei',Arial,sans-serif" font-size="18" font-weight="800" fill="#171412">业务问题</text>
  </g><g>
    <g opacity="1">
    <rect x="500" y="432" width="200" height="92" rx="12" fill="#fff8eb" stroke="#171412" stroke-width="3" stroke-linejoin="round"/>
    <rect x="502" y="434" width="196" height="88" rx="10" fill="none" stroke="#171412" stroke-width="1.5" stroke-linejoin="round" opacity=".35"/>
  </g>
    <path d="M 512 433.5 L 688 433.5 Q 698.5 433.5 698.5 444 L 698.5 474 L 501.5 474 L 501.5 444 Q 501.5 433.5 512 433.5 Z" fill="#91bba5" opacity=".95" stroke="#171412" stroke-width="2.5"/>
    <path d="M 501.5 474 L 698.5 474" stroke="#171412" stroke-width="3"/>
    <circle cx="522" cy="454" r="7" fill="#df765d" stroke="#171412" stroke-width="2"/>
    <circle cx="546" cy="454" r="7" fill="#e9c46a" stroke="#171412" stroke-width="2"/>
    <circle cx="570" cy="454" r="7" fill="#91bba5" stroke="#171412" stroke-width="2"/>
    <text x="626" y="460" text-anchor="middle" font-family="'LXGW WenKai','PingFang SC','Microsoft YaHei',Arial,sans-serif" font-size="18" font-weight="800" fill="#171412">工程方案</text>
  </g><g>
    <g opacity="1">
    <rect x="768" y="432" width="200" height="92" rx="12" fill="#fff8eb" stroke="#171412" stroke-width="3" stroke-linejoin="round"/>
    <rect x="770" y="434" width="196" height="88" rx="10" fill="none" stroke="#171412" stroke-width="1.5" stroke-linejoin="round" opacity=".35"/>
  </g>
    <path d="M 780 433.5 L 956 433.5 Q 966.5 433.5 966.5 444 L 966.5 474 L 769.5 474 L 769.5 444 Q 769.5 433.5 780 433.5 Z" fill="#91bba5" opacity=".95" stroke="#171412" stroke-width="2.5"/>
    <path d="M 769.5 474 L 966.5 474" stroke="#171412" stroke-width="3"/>
    <circle cx="790" cy="454" r="7" fill="#df765d" stroke="#171412" stroke-width="2"/>
    <circle cx="814" cy="454" r="7" fill="#e9c46a" stroke="#171412" stroke-width="2"/>
    <circle cx="838" cy="454" r="7" fill="#91bba5" stroke="#171412" stroke-width="2"/>
    <text x="894" y="460" text-anchor="middle" font-family="'LXGW WenKai','PingFang SC','Microsoft YaHei',Arial,sans-serif" font-size="18" font-weight="800" fill="#171412">运行证据</text>
  </g><text x="332" y="488" text-anchor="middle" font-family="'LXGW WenKai','PingFang SC','Microsoft YaHei',Arial,sans-serif" font-size="22" font-weight="900" fill="#171412">为什么做</text><text x="600" y="488" text-anchor="middle" font-family="'LXGW WenKai','PingFang SC','Microsoft YaHei',Arial,sans-serif" font-size="22" font-weight="900" fill="#171412">怎么落地</text><text x="868" y="488" text-anchor="middle" font-family="'LXGW WenKai','PingFang SC','Microsoft YaHei',Arial,sans-serif" font-size="22" font-weight="900" fill="#171412">如何证明</text>
</svg>
