<svg xmlns="http://www.w3.org/2000/svg" width="1200" height="720" viewBox="0 0 1200 720" role="img" aria-labelledby="title desc">
  <title id="title">六、DBA、运维和研发在云化中融合</title>
  <desc id="desc">不只是会部署，而是让系统可运行、可观察、可恢复</desc>
  <defs>
    <radialGradient id="paper" cx="50%" cy="45%" r="72%">
      <stop offset="0%" stop-color="#f8f1e3"/>
      <stop offset="100%" stop-color="#f2ead9"/>
    </radialGradient>
    <marker id="arrow" viewBox="0 0 12 12" refX="10" refY="6" markerWidth="13" markerHeight="13" orient="auto">
      <path d="M 1 1 L 11 6 L 1 11 z" fill="#171412" stroke="#171412" stroke-width="1"/>
    </marker>
    <marker id="smallArrow" viewBox="0 0 10 10" refX="8" refY="5" markerWidth="8" markerHeight="8" orient="auto">
      <path d="M 1 1 L 9 5 L 1 9 z" fill="#171412"/>
    </marker>
    <filter id="softShadow" x="-20%" y="-20%" width="140%" height="140%">
      <feDropShadow dx="0" dy="10" stdDeviation="8" flood-color="#161412" flood-opacity=".10"/>
    </filter>
  </defs>
  <rect width="1200" height="720" fill="url(#paper)"/>
  <path d="M 40 654 C 250 690 510 674 694 698 C 856 718 1010 696 1160 666" fill="none" stroke="#e6ddca" stroke-width="4" opacity=".6"/>
  <path d="M 34 22 C 230 10 460 18 690 12 C 880 8 1030 12 1166 24" fill="none" stroke="#efe5d0" stroke-width="4" opacity=".42"/>
  <text x="600" y="56" text-anchor="middle" font-family="'LXGW WenKai','PingFang SC','Microsoft YaHei',Arial,sans-serif" font-size="40" font-weight="900" fill="#171412">六、DBA、运维和研发在云化中融合</text>
  <text x="600" y="92" text-anchor="middle" font-family="'LXGW WenKai','PingFang SC','Microsoft YaHei',Arial,sans-serif" font-size="22" font-weight="700" fill="#69645d">不只是会部署，而是让系统可运行、可观察、可恢复</text>
  <text x="236" y="146" text-anchor="middle" font-family="'LXGW WenKai','PingFang SC','Microsoft YaHei',Arial,sans-serif" font-size="32" font-weight="900" fill="#df765d">传统后置</text><g>
    <g opacity="1">
    <path d="M 82 215 L 456 214 Q 471 214 470 226 L 469 530 Q 470 543 458 542 L 83 541 Q 69 542 70 530 L 71 226 Q 70 214 82 215 Z" fill="#fff8eb" stroke="#171412" stroke-width="3" stroke-linejoin="round"/>
    <path d="M 84 217 L 459 216 Q 468 215 468 227 L 471 528 Q 469 540 457 541 L 80 543 Q 71 540 72 529 L 69 228 Q 71 215 84 217 Z" fill="none" stroke="#171412" stroke-width="1.6500000000000001" stroke-linejoin="round" opacity=".45"/>
  </g>
    <path d="M 71 256 L 469 254" stroke="#171412" stroke-width="3"/>
    <path d="M 82 216 L 458 215 Q 470 215 469 229 L 469 255 L 71 256 L 71 228 Q 71 217 82 216 Z" fill="#df765d" opacity=".95" stroke="#171412" stroke-width="2.5"/>
    <circle cx="92" cy="236" r="7" fill="#df765d" stroke="#171412" stroke-width="2"/>
    <circle cx="116" cy="236" r="7" fill="#e9c46a" stroke="#171412" stroke-width="2"/>
    <circle cx="140" cy="236" r="7" fill="#91bba5" stroke="#171412" stroke-width="2"/>
    <text x="270" y="242" text-anchor="middle" font-family="'LXGW WenKai','PingFang SC','Microsoft YaHei',Arial,sans-serif" font-size="20" font-weight="800" fill="#171412">上线后再找人</text>
  </g><g>
    <g opacity="1">
    <path d="M 122 287 L 245 286 Q 258 286 257 296 L 256 342 Q 257 353 247 352 L 123 351 Q 111 352 112 342 L 113 296 Q 112 286 122 287 Z" fill="#fff8eb" stroke="#171412" stroke-width="3" stroke-linejoin="round"/>
    <path d="M 124 289 L 248 288 Q 255 287 255 297 L 258 340 Q 256 350 246 351 L 120 353 Q 113 350 114 341 L 111 298 Q 113 287 124 289 Z" fill="none" stroke="#171412" stroke-width="1.6500000000000001" stroke-linejoin="round" opacity=".45"/>
  </g>
    <text x="184.5" y="322" text-anchor="middle" font-family="'LXGW WenKai','PingFang SC','Microsoft YaHei',Arial,sans-serif" font-size="21" font-weight="800" fill="#171412">开发</text>
    <text x="184.5" y="353" text-anchor="middle" font-family="'LXGW WenKai','PingFang SC','Microsoft YaHei',Arial,sans-serif" font-size="17" font-weight="600" fill="#69645d">写业务</text>
    
  </g><g>
    <g opacity="1">
    <path d="M 302 287 L 425 286 Q 438 286 437 296 L 436 342 Q 437 353 427 352 L 303 351 Q 291 352 292 342 L 293 296 Q 292 286 302 287 Z" fill="#f3b29f" stroke="#171412" stroke-width="3" stroke-linejoin="round"/>
    <path d="M 304 289 L 428 288 Q 435 287 435 297 L 438 340 Q 436 350 426 351 L 300 353 Q 293 350 294 341 L 291 298 Q 293 287 304 289 Z" fill="none" stroke="#171412" stroke-width="1.6500000000000001" stroke-linejoin="round" opacity=".45"/>
  </g>
    <text x="364.5" y="322" text-anchor="middle" font-family="'LXGW WenKai','PingFang SC','Microsoft YaHei',Arial,sans-serif" font-size="21" font-weight="800" fill="#171412">DBA</text>
    <text x="364.5" y="353" text-anchor="middle" font-family="'LXGW WenKai','PingFang SC','Microsoft YaHei',Arial,sans-serif" font-size="17" font-weight="600" fill="#69645d">看数据库</text>
    
  </g><g>
    <g opacity="1">
    <path d="M 122 415 L 245 414 Q 258 414 257 424 L 256 470 Q 257 481 247 480 L 123 479 Q 111 480 112 470 L 113 424 Q 112 414 122 415 Z" fill="#f3b29f" stroke="#171412" stroke-width="3" stroke-linejoin="round"/>
    <path d="M 124 417 L 248 416 Q 255 415 255 425 L 258 468 Q 256 478 246 479 L 120 481 Q 113 478 114 469 L 111 426 Q 113 415 124 417 Z" fill="none" stroke="#171412" stroke-width="1.6500000000000001" stroke-linejoin="round" opacity=".45"/>
  </g>
    <text x="184.5" y="450" text-anchor="middle" font-family="'LXGW WenKai','PingFang SC','Microsoft YaHei',Arial,sans-serif" font-size="21" font-weight="800" fill="#171412">运维</text>
    <text x="184.5" y="481" text-anchor="middle" font-family="'LXGW WenKai','PingFang SC','Microsoft YaHei',Arial,sans-serif" font-size="17" font-weight="600" fill="#69645d">守机器</text>
    
  </g><g>
    <g opacity="1">
    <path d="M 302 415 L 425 414 Q 438 414 437 424 L 436 470 Q 437 481 427 480 L 303 479 Q 291 480 292 470 L 293 424 Q 292 414 302 415 Z" fill="#fff8eb" stroke="#171412" stroke-width="3" stroke-linejoin="round"/>
    <path d="M 304 417 L 428 416 Q 435 415 435 425 L 438 468 Q 436 478 426 479 L 300 481 Q 293 478 294 469 L 291 426 Q 293 415 304 417 Z" fill="none" stroke="#171412" stroke-width="1.6500000000000001" stroke-linejoin="round" opacity=".45"/>
  </g>
    <text x="364.5" y="450" text-anchor="middle" font-family="'LXGW WenKai','PingFang SC','Microsoft YaHei',Arial,sans-serif" font-size="21" font-weight="800" fill="#171412">故障</text>
    <text x="364.5" y="481" text-anchor="middle" font-family="'LXGW WenKai','PingFang SC','Microsoft YaHei',Arial,sans-serif" font-size="17" font-weight="600" fill="#69645d">再应急</text>
    
  </g><path d="M 258 319 L 292 319" fill="none" stroke="#171412" stroke-width="3" stroke-linecap="round" stroke-linejoin="round" opacity="1"/><path d="M 184 352 L 184 414" fill="none" stroke="#171412" stroke-width="3" stroke-linecap="round" stroke-linejoin="round" opacity="1"/><path d="M 258 447 L 292 447" fill="none" stroke="#171412" stroke-width="3" stroke-linecap="round" stroke-linejoin="round" opacity="1"/><path d="M 486 378 C 560 334 610 334 684 378" fill="none" stroke="#171412" stroke-width="12" stroke-linecap="round" stroke-linejoin="round" marker-end="url(#arrow)" opacity="1"/><g>
    <g opacity="1">
    <path d="M 549 331 L 671 330 Q 691 330 690 347 L 689 347 Q 690 365 673 364 L 550 363 Q 531 364 532 347 L 533 347 Q 532 330 549 331 Z" fill="#fff8eb" stroke="#171412" stroke-width="2" stroke-linejoin="round"/>
    <path d="M 551 333 L 674 332 Q 688 331 688 348 L 691 345 Q 689 362 672 363 L 547 365 Q 533 362 534 346 L 531 349 Q 533 331 551 333 Z" fill="none" stroke="#171412" stroke-width="1.2" stroke-linejoin="round" opacity=".45"/>
  </g>
    <text x="611" y="353" text-anchor="middle" font-family="'LXGW WenKai','PingFang SC','Microsoft YaHei',Arial,sans-serif" font-size="17" font-weight="800" fill="#171412">云化 + DevOps</text>
  </g><text x="930" y="146" text-anchor="middle" font-family="'LXGW WenKai','PingFang SC','Microsoft YaHei',Arial,sans-serif" font-size="32" font-weight="900" fill="#91bba5">运行即工程</text><g>
    <g opacity="1">
    <path d="M 720 215 L 1116 214 Q 1131 214 1130 226 L 1129 530 Q 1130 543 1118 542 L 721 541 Q 707 542 708 530 L 709 226 Q 708 214 720 215 Z" fill="#fff8eb" stroke="#171412" stroke-width="3" stroke-linejoin="round"/>
    <path d="M 722 217 L 1119 216 Q 1128 215 1128 227 L 1131 528 Q 1129 540 1117 541 L 718 543 Q 709 540 710 529 L 707 228 Q 709 215 722 217 Z" fill="none" stroke="#171412" stroke-width="1.6500000000000001" stroke-linejoin="round" opacity=".45"/>
  </g>
    <path d="M 709 256 L 1129 254" stroke="#171412" stroke-width="3"/>
    <path d="M 720 216 L 1118 215 Q 1130 215 1129 229 L 1129 255 L 709 256 L 709 228 Q 709 217 720 216 Z" fill="#91bba5" opacity=".95" stroke="#171412" stroke-width="2.5"/>
    <circle cx="730" cy="236" r="7" fill="#df765d" stroke="#171412" stroke-width="2"/>
    <circle cx="754" cy="236" r="7" fill="#e9c46a" stroke="#171412" stroke-width="2"/>
    <circle cx="778" cy="236" r="7" fill="#91bba5" stroke="#171412" stroke-width="2"/>
    <text x="919" y="242" text-anchor="middle" font-family="'LXGW WenKai','PingFang SC','Microsoft YaHei',Arial,sans-serif" font-size="20" font-weight="800" fill="#171412">持续运行闭环</text>
  </g><g>
    <g opacity="1">
    <path d="M 779 279 L 851 278 Q 871 278 870 295 L 869 295 Q 870 313 853 312 L 780 311 Q 761 312 762 295 L 763 295 Q 762 278 779 279 Z" fill="#cfe1d6" stroke="#171412" stroke-width="2" stroke-linejoin="round"/>
    <path d="M 781 281 L 854 280 Q 868 279 868 296 L 871 293 Q 869 310 852 311 L 777 313 Q 763 310 764 294 L 761 297 Q 763 279 781 281 Z" fill="none" stroke="#171412" stroke-width="1.2" stroke-linejoin="round" opacity=".45"/>
  </g>
    <text x="816" y="301" text-anchor="middle" font-family="'LXGW WenKai','PingFang SC','Microsoft YaHei',Arial,sans-serif" font-size="17" font-weight="800" fill="#171412">代码</text>
  </g><g>
    <g opacity="1">
    <path d="M 937 279 L 1009 278 Q 1029 278 1028 295 L 1027 295 Q 1028 313 1011 312 L 938 311 Q 919 312 920 295 L 921 295 Q 920 278 937 279 Z" fill="#cfe1d6" stroke="#171412" stroke-width="2" stroke-linejoin="round"/>
    <path d="M 939 281 L 1012 280 Q 1026 279 1026 296 L 1029 293 Q 1027 310 1010 311 L 935 313 Q 921 310 922 294 L 919 297 Q 921 279 939 281 Z" fill="none" stroke="#171412" stroke-width="1.2" stroke-linejoin="round" opacity=".45"/>
  </g>
    <text x="974" y="301" text-anchor="middle" font-family="'LXGW WenKai','PingFang SC','Microsoft YaHei',Arial,sans-serif" font-size="17" font-weight="800" fill="#171412">CI/CD</text>
  </g><g>
    <g opacity="1">
    <path d="M 1019 381 L 1091 380 Q 1111 380 1110 397 L 1109 397 Q 1110 415 1093 414 L 1020 413 Q 1001 414 1002 397 L 1003 397 Q 1002 380 1019 381 Z" fill="#cfe1d6" stroke="#171412" stroke-width="2" stroke-linejoin="round"/>
    <path d="M 1021 383 L 1094 382 Q 1108 381 1108 398 L 1111 395 Q 1109 412 1092 413 L 1017 415 Q 1003 412 1004 396 L 1001 399 Q 1003 381 1021 383 Z" fill="none" stroke="#171412" stroke-width="1.2" stroke-linejoin="round" opacity=".45"/>
  </g>
    <text x="1056" y="403" text-anchor="middle" font-family="'LXGW WenKai','PingFang SC','Microsoft YaHei',Arial,sans-serif" font-size="17" font-weight="800" fill="#171412">云资源</text>
  </g><g>
    <g opacity="1">
    <path d="M 937 479 L 1009 478 Q 1029 478 1028 495 L 1027 495 Q 1028 513 1011 512 L 938 511 Q 919 512 920 495 L 921 495 Q 920 478 937 479 Z" fill="#cfe1d6" stroke="#171412" stroke-width="2" stroke-linejoin="round"/>
    <path d="M 939 481 L 1012 480 Q 1026 479 1026 496 L 1029 493 Q 1027 510 1010 511 L 935 513 Q 921 510 922 494 L 919 497 Q 921 479 939 481 Z" fill="none" stroke="#171412" stroke-width="1.2" stroke-linejoin="round" opacity=".45"/>
  </g>
    <text x="974" y="501" text-anchor="middle" font-family="'LXGW WenKai','PingFang SC','Microsoft YaHei',Arial,sans-serif" font-size="17" font-weight="800" fill="#171412">监控</text>
  </g><g>
    <g opacity="1">
    <path d="M 779 479 L 851 478 Q 871 478 870 495 L 869 495 Q 870 513 853 512 L 780 511 Q 761 512 762 495 L 763 495 Q 762 478 779 479 Z" fill="#cfe1d6" stroke="#171412" stroke-width="2" stroke-linejoin="round"/>
    <path d="M 781 481 L 854 480 Q 868 479 868 496 L 871 493 Q 869 510 852 511 L 777 513 Q 763 510 764 494 L 761 497 Q 763 479 781 481 Z" fill="none" stroke="#171412" stroke-width="1.2" stroke-linejoin="round" opacity=".45"/>
  </g>
    <text x="816" y="501" text-anchor="middle" font-family="'LXGW WenKai','PingFang SC','Microsoft YaHei',Arial,sans-serif" font-size="17" font-weight="800" fill="#171412">恢复</text>
  </g><g>
    <g opacity="1">
    <path d="M 777 381 L 849 380 Q 869 380 868 397 L 867 397 Q 868 415 851 414 L 778 413 Q 759 414 760 397 L 761 397 Q 760 380 777 381 Z" fill="#cfe1d6" stroke="#171412" stroke-width="2" stroke-linejoin="round"/>
    <path d="M 779 383 L 852 382 Q 866 381 866 398 L 869 395 Q 867 412 850 413 L 775 415 Q 761 412 762 396 L 759 399 Q 761 381 779 383 Z" fill="none" stroke="#171412" stroke-width="1.2" stroke-linejoin="round" opacity=".45"/>
  </g>
    <text x="814" y="403" text-anchor="middle" font-family="'LXGW WenKai','PingFang SC','Microsoft YaHei',Arial,sans-serif" font-size="17" font-weight="800" fill="#171412">数据库</text>
  </g><path d="M 870 294 L 920 294" fill="none" stroke="#171412" stroke-width="4" stroke-linecap="round" stroke-linejoin="round" marker-end="url(#smallArrow)" opacity="1"/><path d="M 1004 313 C 1050 330 1064 356 1056 380" fill="none" stroke="#171412" stroke-width="4" stroke-linecap="round" stroke-linejoin="round" marker-end="url(#smallArrow)" opacity="1"/><path d="M 1002 494 L 920 494" fill="none" stroke="#171412" stroke-width="4" stroke-linecap="round" stroke-linejoin="round" marker-end="url(#smallArrow)" opacity="1"/><path d="M 870 494 L 818 494" fill="none" stroke="#171412" stroke-width="4" stroke-linecap="round" stroke-linejoin="round" marker-end="url(#smallArrow)" opacity="1"/><path d="M 816 478 L 816 414" fill="none" stroke="#171412" stroke-width="4" stroke-linecap="round" stroke-linejoin="round" marker-end="url(#smallArrow)" opacity="1"/><path d="M 816 380 L 816 312" fill="none" stroke="#171412" stroke-width="4" stroke-linecap="round" stroke-linejoin="round" marker-end="url(#smallArrow)" opacity="1"/><text x="920" y="600" text-anchor="middle" font-family="'LXGW WenKai','PingFang SC','Microsoft YaHei',Arial,sans-serif" font-size="23" font-weight="900" fill="#171412">容量 / 成本 / 可观测 / 回滚 / 恢复</text>
</svg>
