<svg xmlns="http://www.w3.org/2000/svg" width="1200" height="720" viewBox="0 0 1200 720" role="img" aria-labelledby="title desc">
  <title id="title">十、组织和个人都会被重新定义</title>
  <desc id="desc">AI 会放大复合型人才，也会暴露上下文传递成本</desc>
  <defs>
    <radialGradient id="paper" cx="50%" cy="45%" r="72%">
      <stop offset="0%" stop-color="#f8f1e3"/>
      <stop offset="100%" stop-color="#f2ead9"/>
    </radialGradient>
    <marker id="arrow" viewBox="0 0 14 14" refX="13" refY="7" markerWidth="34" markerHeight="34" markerUnits="userSpaceOnUse" orient="auto">
      <path d="M 1 1 L 13 7 L 1 13 z" fill="#171412" stroke="#171412" stroke-width="1"/>
    </marker>
    <marker id="smallArrow" viewBox="0 0 10 10" refX="9" refY="5" markerWidth="16" markerHeight="16" markerUnits="userSpaceOnUse" orient="auto">
      <path d="M 1 1 L 9 5 L 1 9 z" fill="#171412"/>
    </marker>
    <filter id="softShadow" x="-20%" y="-20%" width="140%" height="140%">
      <feDropShadow dx="0" dy="10" stdDeviation="8" flood-color="#161412" flood-opacity=".10"/>
    </filter>
  </defs>
  <rect width="1200" height="720" fill="url(#paper)"/>
  <path d="M 40 654 C 250 690 510 674 694 698 C 856 718 1010 696 1160 666" fill="none" stroke="#e6ddca" stroke-width="4" opacity=".6"/>
  <path d="M 34 22 C 230 10 460 18 690 12 C 880 8 1030 12 1166 24" fill="none" stroke="#efe5d0" stroke-width="4" opacity=".42"/>
  <text x="600" y="56" text-anchor="middle" font-family="'LXGW WenKai','PingFang SC','Microsoft YaHei',Arial,sans-serif" font-size="40" font-weight="900" fill="#171412">十、组织和个人都会被重新定义</text>
  <text x="600" y="92" text-anchor="middle" font-family="'LXGW WenKai','PingFang SC','Microsoft YaHei',Arial,sans-serif" font-size="22" font-weight="700" fill="#69645d">AI 会放大复合型人才，也会暴露上下文传递成本</text>
  <text x="232" y="146" text-anchor="middle" font-family="'LXGW WenKai','PingFang SC','Microsoft YaHei',Arial,sans-serif" font-size="31" font-weight="900" fill="#df765d">旧组织：角色墙</text><g>
    <g opacity="1">
    <rect x="70" y="214" width="400" height="328" rx="12" fill="#fff8eb" stroke="#171412" stroke-width="3" stroke-linejoin="round"/>
    <rect x="72" y="216" width="396" height="324" rx="10" fill="none" stroke="#171412" stroke-width="1.5" stroke-linejoin="round" opacity=".35"/>
  </g>
    <path d="M 82 215.5 L 458 215.5 Q 468.5 215.5 468.5 226 L 468.5 256 L 71.5 256 L 71.5 226 Q 71.5 215.5 82 215.5 Z" fill="#df765d" opacity=".95" stroke="#171412" stroke-width="2.5"/>
    <path d="M 71.5 256 L 468.5 256" stroke="#171412" stroke-width="3"/>
    <circle cx="92" cy="236" r="7" fill="#df765d" stroke="#171412" stroke-width="2"/>
    <circle cx="116" cy="236" r="7" fill="#e9c46a" stroke="#171412" stroke-width="2"/>
    <circle cx="140" cy="236" r="7" fill="#91bba5" stroke="#171412" stroke-width="2"/>
    <text x="270" y="242" text-anchor="middle" font-family="'LXGW WenKai','PingFang SC','Microsoft YaHei',Arial,sans-serif" font-size="20" font-weight="800" fill="#171412">边界很硬</text>
  </g><g>
    <g opacity="1">
    <rect x="112" y="282" width="128" height="56" rx="10" fill="#f3b29f" stroke="#171412" stroke-width="3" stroke-linejoin="round"/>
    <rect x="114" y="284" width="124" height="52" rx="8" fill="none" stroke="#171412" stroke-width="1.5" stroke-linejoin="round" opacity=".35"/>
  </g>
    <text x="176" y="316.65" text-anchor="middle" font-family="'LXGW WenKai','PingFang SC','Microsoft YaHei',Arial,sans-serif" font-size="19" font-weight="800" fill="#171412">产品</text>
    
    
  </g><g>
    <g opacity="1">
    <rect x="272" y="282" width="128" height="56" rx="10" fill="#f3b29f" stroke="#171412" stroke-width="3" stroke-linejoin="round"/>
    <rect x="274" y="284" width="124" height="52" rx="8" fill="none" stroke="#171412" stroke-width="1.5" stroke-linejoin="round" opacity=".35"/>
  </g>
    <text x="336" y="316.65" text-anchor="middle" font-family="'LXGW WenKai','PingFang SC','Microsoft YaHei',Arial,sans-serif" font-size="19" font-weight="800" fill="#171412">前端</text>
    
    
  </g><g>
    <g opacity="1">
    <rect x="112" y="358" width="128" height="56" rx="10" fill="#fff8eb" stroke="#171412" stroke-width="3" stroke-linejoin="round"/>
    <rect x="114" y="360" width="124" height="52" rx="8" fill="none" stroke="#171412" stroke-width="1.5" stroke-linejoin="round" opacity=".35"/>
  </g>
    <text x="176" y="392.65" text-anchor="middle" font-family="'LXGW WenKai','PingFang SC','Microsoft YaHei',Arial,sans-serif" font-size="19" font-weight="800" fill="#171412">后端</text>
    
    
  </g><g>
    <g opacity="1">
    <rect x="272" y="358" width="128" height="56" rx="10" fill="#fff8eb" stroke="#171412" stroke-width="3" stroke-linejoin="round"/>
    <rect x="274" y="360" width="124" height="52" rx="8" fill="none" stroke="#171412" stroke-width="1.5" stroke-linejoin="round" opacity=".35"/>
  </g>
    <text x="336" y="392.65" text-anchor="middle" font-family="'LXGW WenKai','PingFang SC','Microsoft YaHei',Arial,sans-serif" font-size="19" font-weight="800" fill="#171412">测试</text>
    
    
  </g><g>
    <g opacity="1">
    <rect x="112" y="434" width="128" height="56" rx="10" fill="#fff8eb" stroke="#171412" stroke-width="3" stroke-linejoin="round"/>
    <rect x="114" y="436" width="124" height="52" rx="8" fill="none" stroke="#171412" stroke-width="1.5" stroke-linejoin="round" opacity=".35"/>
  </g>
    <text x="176" y="468.65" text-anchor="middle" font-family="'LXGW WenKai','PingFang SC','Microsoft YaHei',Arial,sans-serif" font-size="19" font-weight="800" fill="#171412">DBA</text>
    
    
  </g><g>
    <g opacity="1">
    <rect x="272" y="434" width="128" height="56" rx="10" fill="#fff8eb" stroke="#171412" stroke-width="3" stroke-linejoin="round"/>
    <rect x="274" y="436" width="124" height="52" rx="8" fill="none" stroke="#171412" stroke-width="1.5" stroke-linejoin="round" opacity=".35"/>
  </g>
    <text x="336" y="468.65" text-anchor="middle" font-family="'LXGW WenKai','PingFang SC','Microsoft YaHei',Arial,sans-serif" font-size="19" font-weight="800" fill="#171412">运维</text>
    
    
  </g><path d="M 270 252 L 270 304" fill="none" stroke="#171412" stroke-width="4" stroke-linecap="round" stroke-linejoin="round" opacity="0.5"/><path d="M 270 328 L 270 380" fill="none" stroke="#171412" stroke-width="4" stroke-linecap="round" stroke-linejoin="round" opacity="0.5"/><path d="M 270 404 L 270 456" fill="none" stroke="#171412" stroke-width="4" stroke-linecap="round" stroke-linejoin="round" opacity="0.5"/><path d="M 490 378 L 686 378" fill="none" stroke="#171412" stroke-width="10" stroke-linecap="round" stroke-linejoin="round" marker-end="url(#arrow)" opacity="1"/>
  <g>
    <g opacity="1">
    <rect x="527" y="361" width="122" height="34" rx="17" fill="#fff8eb" stroke="#171412" stroke-width="2" stroke-linejoin="round"/>
    <rect x="529" y="363" width="118" height="30" rx="15" fill="none" stroke="#171412" stroke-width="1.2" stroke-linejoin="round" opacity=".35"/>
  </g>
    <text x="588" y="384" text-anchor="middle" font-family="'LXGW WenKai','PingFang SC','Microsoft YaHei',Arial,sans-serif" font-size="17" font-weight="800" fill="#171412">闭环变强</text>
  </g><text x="932" y="146" text-anchor="middle" font-family="'LXGW WenKai','PingFang SC','Microsoft YaHei',Arial,sans-serif" font-size="31" font-weight="900" fill="#91bba5">新组织：能力网</text><g>
    <g opacity="1">
    <rect x="706" y="214" width="424" height="328" rx="12" fill="#fff8eb" stroke="#171412" stroke-width="3" stroke-linejoin="round"/>
    <rect x="708" y="216" width="420" height="324" rx="10" fill="none" stroke="#171412" stroke-width="1.5" stroke-linejoin="round" opacity=".35"/>
  </g>
    <path d="M 718 215.5 L 1118 215.5 Q 1128.5 215.5 1128.5 226 L 1128.5 256 L 707.5 256 L 707.5 226 Q 707.5 215.5 718 215.5 Z" fill="#91bba5" opacity=".95" stroke="#171412" stroke-width="2.5"/>
    <path d="M 707.5 256 L 1128.5 256" stroke="#171412" stroke-width="3"/>
    <circle cx="728" cy="236" r="7" fill="#df765d" stroke="#171412" stroke-width="2"/>
    <circle cx="752" cy="236" r="7" fill="#e9c46a" stroke="#171412" stroke-width="2"/>
    <circle cx="776" cy="236" r="7" fill="#91bba5" stroke="#171412" stroke-width="2"/>
    <text x="918" y="242" text-anchor="middle" font-family="'LXGW WenKai','PingFang SC','Microsoft YaHei',Arial,sans-serif" font-size="20" font-weight="800" fill="#171412">上下文损耗更少</text>
  </g><g>
    <g opacity="1">
    <rect x="832" y="286" width="172" height="86" rx="10" fill="#cfe1d6" stroke="#171412" stroke-width="3" stroke-linejoin="round"/>
    <rect x="834" y="288" width="168" height="82" rx="8" fill="none" stroke="#171412" stroke-width="1.5" stroke-linejoin="round" opacity=".35"/>
  </g>
    <text x="918" y="318.68" text-anchor="middle" font-family="'LXGW WenKai','PingFang SC','Microsoft YaHei',Arial,sans-serif" font-size="22" font-weight="800" fill="#171412">复合型个人</text>
    <text x="918" y="346.68" text-anchor="middle" font-family="'LXGW WenKai','PingFang SC','Microsoft YaHei',Arial,sans-serif" font-size="17" font-weight="600" fill="#69645d">业务 + 技术 + 质量</text>
    
  </g><g>
    <g opacity="1">
    <rect x="746" y="420" width="150" height="72" rx="10" fill="#fff8eb" stroke="#171412" stroke-width="3" stroke-linejoin="round"/>
    <rect x="748" y="422" width="146" height="68" rx="8" fill="none" stroke="#171412" stroke-width="1.5" stroke-linejoin="round" opacity=".35"/>
  </g>
    <text x="821" y="450" text-anchor="middle" font-family="'LXGW WenKai','PingFang SC','Microsoft YaHei',Arial,sans-serif" font-size="20" font-weight="800" fill="#171412">AI 工具</text>
    <text x="821" y="476" text-anchor="middle" font-family="'LXGW WenKai','PingFang SC','Microsoft YaHei',Arial,sans-serif" font-size="17" font-weight="600" fill="#69645d">执行放大器</text>
    
  </g><g>
    <g opacity="1">
    <rect x="940" y="420" width="150" height="72" rx="10" fill="#fff8eb" stroke="#171412" stroke-width="3" stroke-linejoin="round"/>
    <rect x="942" y="422" width="146" height="68" rx="8" fill="none" stroke="#171412" stroke-width="1.5" stroke-linejoin="round" opacity=".35"/>
  </g>
    <text x="1015" y="450" text-anchor="middle" font-family="'LXGW WenKai','PingFang SC','Microsoft YaHei',Arial,sans-serif" font-size="20" font-weight="800" fill="#171412">小团队</text>
    <text x="1015" y="476" text-anchor="middle" font-family="'LXGW WenKai','PingFang SC','Microsoft YaHei',Arial,sans-serif" font-size="17" font-weight="600" fill="#69645d">闭环协作</text>
    
  </g><path d="M 916 372 L 832 420" fill="none" stroke="#171412" stroke-width="4" stroke-linecap="round" stroke-linejoin="round" marker-end="url(#smallArrow)" opacity="1"/><path d="M 920 372 L 1016 420" fill="none" stroke="#171412" stroke-width="4" stroke-linecap="round" stroke-linejoin="round" marker-end="url(#smallArrow)" opacity="1"/><text x="920" y="594" text-anchor="middle" font-family="'LXGW WenKai','PingFang SC','Microsoft YaHei',Arial,sans-serif" font-size="24" font-weight="900" fill="#171412">不是角色最多，而是闭环最快形成</text>
</svg>
