<svg xmlns="http://www.w3.org/2000/svg" width="1200" height="720" viewBox="0 0 1200 720" role="img" aria-labelledby="title desc">
  <title id="title">六、DBA、运维和研发在云化中融合</title>
  <desc id="desc">不只是会部署，而是让系统可运行、可观察、可恢复</desc>
  <defs>
    <radialGradient id="paper" cx="50%" cy="45%" r="72%">
      <stop offset="0%" stop-color="#f8f1e3"/>
      <stop offset="100%" stop-color="#f2ead9"/>
    </radialGradient>
    <marker id="arrow" viewBox="0 0 14 14" refX="13" refY="7" markerWidth="34" markerHeight="34" markerUnits="userSpaceOnUse" orient="auto">
      <path d="M 1 1 L 13 7 L 1 13 z" fill="#171412" stroke="#171412" stroke-width="1"/>
    </marker>
    <marker id="smallArrow" viewBox="0 0 10 10" refX="9" refY="5" markerWidth="16" markerHeight="16" markerUnits="userSpaceOnUse" orient="auto">
      <path d="M 1 1 L 9 5 L 1 9 z" fill="#171412"/>
    </marker>
    <filter id="softShadow" x="-20%" y="-20%" width="140%" height="140%">
      <feDropShadow dx="0" dy="10" stdDeviation="8" flood-color="#161412" flood-opacity=".10"/>
    </filter>
  </defs>
  <rect width="1200" height="720" fill="url(#paper)"/>
  <path d="M 40 654 C 250 690 510 674 694 698 C 856 718 1010 696 1160 666" fill="none" stroke="#e6ddca" stroke-width="4" opacity=".6"/>
  <path d="M 34 22 C 230 10 460 18 690 12 C 880 8 1030 12 1166 24" fill="none" stroke="#efe5d0" stroke-width="4" opacity=".42"/>
  <text x="600" y="56" text-anchor="middle" font-family="'LXGW WenKai','PingFang SC','Microsoft YaHei',Arial,sans-serif" font-size="40" font-weight="900" fill="#171412">六、DBA、运维和研发在云化中融合</text>
  <text x="600" y="92" text-anchor="middle" font-family="'LXGW WenKai','PingFang SC','Microsoft YaHei',Arial,sans-serif" font-size="22" font-weight="700" fill="#69645d">不只是会部署，而是让系统可运行、可观察、可恢复</text>
  <text x="236" y="146" text-anchor="middle" font-family="'LXGW WenKai','PingFang SC','Microsoft YaHei',Arial,sans-serif" font-size="32" font-weight="900" fill="#df765d">传统后置</text><g>
    <g opacity="1">
    <rect x="70" y="214" width="400" height="328" rx="12" fill="#fff8eb" stroke="#171412" stroke-width="3" stroke-linejoin="round"/>
    <rect x="72" y="216" width="396" height="324" rx="10" fill="none" stroke="#171412" stroke-width="1.5" stroke-linejoin="round" opacity=".35"/>
  </g>
    <path d="M 82 215.5 L 458 215.5 Q 468.5 215.5 468.5 226 L 468.5 256 L 71.5 256 L 71.5 226 Q 71.5 215.5 82 215.5 Z" fill="#df765d" opacity=".95" stroke="#171412" stroke-width="2.5"/>
    <path d="M 71.5 256 L 468.5 256" stroke="#171412" stroke-width="3"/>
    <circle cx="92" cy="236" r="7" fill="#df765d" stroke="#171412" stroke-width="2"/>
    <circle cx="116" cy="236" r="7" fill="#e9c46a" stroke="#171412" stroke-width="2"/>
    <circle cx="140" cy="236" r="7" fill="#91bba5" stroke="#171412" stroke-width="2"/>
    <text x="270" y="242" text-anchor="middle" font-family="'LXGW WenKai','PingFang SC','Microsoft YaHei',Arial,sans-serif" font-size="20" font-weight="800" fill="#171412">上线后再找人</text>
  </g><g>
    <g opacity="1">
    <rect x="112" y="286" width="145" height="66" rx="10" fill="#fff8eb" stroke="#171412" stroke-width="3" stroke-linejoin="round"/>
    <rect x="114" y="288" width="141" height="62" rx="8" fill="none" stroke="#171412" stroke-width="1.5" stroke-linejoin="round" opacity=".35"/>
  </g>
    <text x="184.5" y="310" text-anchor="middle" font-family="'LXGW WenKai','PingFang SC','Microsoft YaHei',Arial,sans-serif" font-size="21" font-weight="800" fill="#171412">开发</text>
    <text x="184.5" y="339" text-anchor="middle" font-family="'LXGW WenKai','PingFang SC','Microsoft YaHei',Arial,sans-serif" font-size="17" font-weight="600" fill="#69645d">写业务</text>
    
  </g><g>
    <g opacity="1">
    <rect x="292" y="286" width="145" height="66" rx="10" fill="#f3b29f" stroke="#171412" stroke-width="3" stroke-linejoin="round"/>
    <rect x="294" y="288" width="141" height="62" rx="8" fill="none" stroke="#171412" stroke-width="1.5" stroke-linejoin="round" opacity=".35"/>
  </g>
    <text x="364.5" y="310" text-anchor="middle" font-family="'LXGW WenKai','PingFang SC','Microsoft YaHei',Arial,sans-serif" font-size="21" font-weight="800" fill="#171412">DBA</text>
    <text x="364.5" y="339" text-anchor="middle" font-family="'LXGW WenKai','PingFang SC','Microsoft YaHei',Arial,sans-serif" font-size="17" font-weight="600" fill="#69645d">看数据库</text>
    
  </g><g>
    <g opacity="1">
    <rect x="112" y="414" width="145" height="66" rx="10" fill="#f3b29f" stroke="#171412" stroke-width="3" stroke-linejoin="round"/>
    <rect x="114" y="416" width="141" height="62" rx="8" fill="none" stroke="#171412" stroke-width="1.5" stroke-linejoin="round" opacity=".35"/>
  </g>
    <text x="184.5" y="438" text-anchor="middle" font-family="'LXGW WenKai','PingFang SC','Microsoft YaHei',Arial,sans-serif" font-size="21" font-weight="800" fill="#171412">运维</text>
    <text x="184.5" y="467" text-anchor="middle" font-family="'LXGW WenKai','PingFang SC','Microsoft YaHei',Arial,sans-serif" font-size="17" font-weight="600" fill="#69645d">守机器</text>
    
  </g><g>
    <g opacity="1">
    <rect x="292" y="414" width="145" height="66" rx="10" fill="#fff8eb" stroke="#171412" stroke-width="3" stroke-linejoin="round"/>
    <rect x="294" y="416" width="141" height="62" rx="8" fill="none" stroke="#171412" stroke-width="1.5" stroke-linejoin="round" opacity=".35"/>
  </g>
    <text x="364.5" y="438" text-anchor="middle" font-family="'LXGW WenKai','PingFang SC','Microsoft YaHei',Arial,sans-serif" font-size="21" font-weight="800" fill="#171412">故障</text>
    <text x="364.5" y="467" text-anchor="middle" font-family="'LXGW WenKai','PingFang SC','Microsoft YaHei',Arial,sans-serif" font-size="17" font-weight="600" fill="#69645d">再应急</text>
    
  </g><path d="M 258 319 L 292 319" fill="none" stroke="#171412" stroke-width="3" stroke-linecap="round" stroke-linejoin="round" opacity="1"/><path d="M 184 352 L 184 414" fill="none" stroke="#171412" stroke-width="3" stroke-linecap="round" stroke-linejoin="round" opacity="1"/><path d="M 258 447 L 292 447" fill="none" stroke="#171412" stroke-width="3" stroke-linecap="round" stroke-linejoin="round" opacity="1"/><path d="M 490 378 L 686 378" fill="none" stroke="#171412" stroke-width="10" stroke-linecap="round" stroke-linejoin="round" marker-end="url(#arrow)" opacity="1"/>
  <g>
    <g opacity="1">
    <rect x="509" y="361" width="158" height="34" rx="17" fill="#fff8eb" stroke="#171412" stroke-width="2" stroke-linejoin="round"/>
    <rect x="511" y="363" width="154" height="30" rx="15" fill="none" stroke="#171412" stroke-width="1.2" stroke-linejoin="round" opacity=".35"/>
  </g>
    <text x="588" y="384" text-anchor="middle" font-family="'LXGW WenKai','PingFang SC','Microsoft YaHei',Arial,sans-serif" font-size="17" font-weight="800" fill="#171412">云化 + DevOps</text>
  </g><text x="930" y="146" text-anchor="middle" font-family="'LXGW WenKai','PingFang SC','Microsoft YaHei',Arial,sans-serif" font-size="32" font-weight="900" fill="#91bba5">运行即工程</text><g>
    <g opacity="1">
    <rect x="708" y="214" width="422" height="328" rx="12" fill="#fff8eb" stroke="#171412" stroke-width="3" stroke-linejoin="round"/>
    <rect x="710" y="216" width="418" height="324" rx="10" fill="none" stroke="#171412" stroke-width="1.5" stroke-linejoin="round" opacity=".35"/>
  </g>
    <path d="M 720 215.5 L 1118 215.5 Q 1128.5 215.5 1128.5 226 L 1128.5 256 L 709.5 256 L 709.5 226 Q 709.5 215.5 720 215.5 Z" fill="#91bba5" opacity=".95" stroke="#171412" stroke-width="2.5"/>
    <path d="M 709.5 256 L 1128.5 256" stroke="#171412" stroke-width="3"/>
    <circle cx="730" cy="236" r="7" fill="#df765d" stroke="#171412" stroke-width="2"/>
    <circle cx="754" cy="236" r="7" fill="#e9c46a" stroke="#171412" stroke-width="2"/>
    <circle cx="778" cy="236" r="7" fill="#91bba5" stroke="#171412" stroke-width="2"/>
    <text x="919" y="242" text-anchor="middle" font-family="'LXGW WenKai','PingFang SC','Microsoft YaHei',Arial,sans-serif" font-size="20" font-weight="800" fill="#171412">持续运行闭环</text>
  </g><g>
    <g opacity="1">
    <rect x="762" y="278" width="108" height="34" rx="17" fill="#cfe1d6" stroke="#171412" stroke-width="2" stroke-linejoin="round"/>
    <rect x="764" y="280" width="104" height="30" rx="15" fill="none" stroke="#171412" stroke-width="1.2" stroke-linejoin="round" opacity=".35"/>
  </g>
    <text x="816" y="301" text-anchor="middle" font-family="'LXGW WenKai','PingFang SC','Microsoft YaHei',Arial,sans-serif" font-size="17" font-weight="800" fill="#171412">代码</text>
  </g><g>
    <g opacity="1">
    <rect x="920" y="278" width="108" height="34" rx="17" fill="#cfe1d6" stroke="#171412" stroke-width="2" stroke-linejoin="round"/>
    <rect x="922" y="280" width="104" height="30" rx="15" fill="none" stroke="#171412" stroke-width="1.2" stroke-linejoin="round" opacity=".35"/>
  </g>
    <text x="974" y="301" text-anchor="middle" font-family="'LXGW WenKai','PingFang SC','Microsoft YaHei',Arial,sans-serif" font-size="17" font-weight="800" fill="#171412">CI/CD</text>
  </g><g>
    <g opacity="1">
    <rect x="1002" y="380" width="108" height="34" rx="17" fill="#cfe1d6" stroke="#171412" stroke-width="2" stroke-linejoin="round"/>
    <rect x="1004" y="382" width="104" height="30" rx="15" fill="none" stroke="#171412" stroke-width="1.2" stroke-linejoin="round" opacity=".35"/>
  </g>
    <text x="1056" y="403" text-anchor="middle" font-family="'LXGW WenKai','PingFang SC','Microsoft YaHei',Arial,sans-serif" font-size="17" font-weight="800" fill="#171412">云资源</text>
  </g><g>
    <g opacity="1">
    <rect x="920" y="478" width="108" height="34" rx="17" fill="#cfe1d6" stroke="#171412" stroke-width="2" stroke-linejoin="round"/>
    <rect x="922" y="480" width="104" height="30" rx="15" fill="none" stroke="#171412" stroke-width="1.2" stroke-linejoin="round" opacity=".35"/>
  </g>
    <text x="974" y="501" text-anchor="middle" font-family="'LXGW WenKai','PingFang SC','Microsoft YaHei',Arial,sans-serif" font-size="17" font-weight="800" fill="#171412">监控</text>
  </g><g>
    <g opacity="1">
    <rect x="762" y="478" width="108" height="34" rx="17" fill="#cfe1d6" stroke="#171412" stroke-width="2" stroke-linejoin="round"/>
    <rect x="764" y="480" width="104" height="30" rx="15" fill="none" stroke="#171412" stroke-width="1.2" stroke-linejoin="round" opacity=".35"/>
  </g>
    <text x="816" y="501" text-anchor="middle" font-family="'LXGW WenKai','PingFang SC','Microsoft YaHei',Arial,sans-serif" font-size="17" font-weight="800" fill="#171412">恢复</text>
  </g><g>
    <g opacity="1">
    <rect x="760" y="380" width="108" height="34" rx="17" fill="#cfe1d6" stroke="#171412" stroke-width="2" stroke-linejoin="round"/>
    <rect x="762" y="382" width="104" height="30" rx="15" fill="none" stroke="#171412" stroke-width="1.2" stroke-linejoin="round" opacity=".35"/>
  </g>
    <text x="814" y="403" text-anchor="middle" font-family="'LXGW WenKai','PingFang SC','Microsoft YaHei',Arial,sans-serif" font-size="17" font-weight="800" fill="#171412">数据库</text>
  </g><path d="M 870 294 L 920 294" fill="none" stroke="#171412" stroke-width="4" stroke-linecap="round" stroke-linejoin="round" marker-end="url(#smallArrow)" opacity="1"/><path d="M 1028 294 C 1080 308 1084 348 1056 380" fill="none" stroke="#171412" stroke-width="4" stroke-linecap="round" stroke-linejoin="round" marker-end="url(#smallArrow)" opacity="1"/><path d="M 1056 414 L 1056 414 L 1056 495 L 1028 495" fill="none" stroke="#171412" stroke-width="4" stroke-linecap="round" stroke-linejoin="round" marker-end="url(#smallArrow)" opacity="1"/><path d="M 920 495 L 870 495" fill="none" stroke="#171412" stroke-width="4" stroke-linecap="round" stroke-linejoin="round" marker-end="url(#smallArrow)" opacity="1"/><path d="M 816 478 L 816 414" fill="none" stroke="#171412" stroke-width="4" stroke-linecap="round" stroke-linejoin="round" marker-end="url(#smallArrow)" opacity="1"/><path d="M 816 380 L 816 312" fill="none" stroke="#171412" stroke-width="4" stroke-linecap="round" stroke-linejoin="round" marker-end="url(#smallArrow)" opacity="1"/><text x="920" y="600" text-anchor="middle" font-family="'LXGW WenKai','PingFang SC','Microsoft YaHei',Arial,sans-serif" font-size="23" font-weight="900" fill="#171412">容量 / 成本 / 可观测 / 回滚 / 恢复</text>
</svg>
