<svg xmlns="http://www.w3.org/2000/svg" width="1200" height="720" viewBox="0 0 1200 720" role="img" aria-labelledby="title desc">
  <title id="title">三、AI 先压缩的是沟通链路</title>
  <desc id="desc">少传递样板信息，多讨论目标、约束、取舍和风险</desc>
  <defs>
    <radialGradient id="paper" cx="50%" cy="45%" r="72%">
      <stop offset="0%" stop-color="#f8f1e3"/>
      <stop offset="100%" stop-color="#f2ead9"/>
    </radialGradient>
    <marker id="arrow" viewBox="0 0 12 12" refX="10" refY="6" markerWidth="13" markerHeight="13" orient="auto">
      <path d="M 1 1 L 11 6 L 1 11 z" fill="#171412" stroke="#171412" stroke-width="1"/>
    </marker>
    <marker id="smallArrow" viewBox="0 0 10 10" refX="8" refY="5" markerWidth="8" markerHeight="8" orient="auto">
      <path d="M 1 1 L 9 5 L 1 9 z" fill="#171412"/>
    </marker>
    <filter id="softShadow" x="-20%" y="-20%" width="140%" height="140%">
      <feDropShadow dx="0" dy="10" stdDeviation="8" flood-color="#161412" flood-opacity=".10"/>
    </filter>
  </defs>
  <rect width="1200" height="720" fill="url(#paper)"/>
  <path d="M 40 654 C 250 690 510 674 694 698 C 856 718 1010 696 1160 666" fill="none" stroke="#e6ddca" stroke-width="4" opacity=".6"/>
  <path d="M 34 22 C 230 10 460 18 690 12 C 880 8 1030 12 1166 24" fill="none" stroke="#efe5d0" stroke-width="4" opacity=".42"/>
  <text x="600" y="56" text-anchor="middle" font-family="'LXGW WenKai','PingFang SC','Microsoft YaHei',Arial,sans-serif" font-size="40" font-weight="900" fill="#171412">三、AI 先压缩的是沟通链路</text>
  <text x="600" y="92" text-anchor="middle" font-family="'LXGW WenKai','PingFang SC','Microsoft YaHei',Arial,sans-serif" font-size="22" font-weight="700" fill="#69645d">少传递样板信息，多讨论目标、约束、取舍和风险</text>
  <text x="220" y="148" text-anchor="middle" font-family="'LXGW WenKai','PingFang SC','Microsoft YaHei',Arial,sans-serif" font-size="32" font-weight="900" fill="#df765d">过去：多人转译</text><g>
    <g opacity="1">
    <path d="M 74 207 L 410 206 Q 425 206 424 218 L 423 534 Q 424 547 412 546 L 75 545 Q 61 546 62 534 L 63 218 Q 62 206 74 207 Z" fill="#fff8eb" stroke="#171412" stroke-width="3" stroke-linejoin="round"/>
    <path d="M 76 209 L 413 208 Q 422 207 422 219 L 425 532 Q 423 544 411 545 L 72 547 Q 63 544 64 533 L 61 220 Q 63 207 76 209 Z" fill="none" stroke="#171412" stroke-width="1.6500000000000001" stroke-linejoin="round" opacity=".45"/>
  </g>
    <path d="M 63 248 L 423 246" stroke="#171412" stroke-width="3"/>
    <path d="M 74 208 L 412 207 Q 424 207 423 221 L 423 247 L 63 248 L 63 220 Q 63 209 74 208 Z" fill="#df765d" opacity=".95" stroke="#171412" stroke-width="2.5"/>
    <circle cx="84" cy="228" r="7" fill="#df765d" stroke="#171412" stroke-width="2"/>
    <circle cx="108" cy="228" r="7" fill="#e9c46a" stroke="#171412" stroke-width="2"/>
    <circle cx="132" cy="228" r="7" fill="#91bba5" stroke="#171412" stroke-width="2"/>
    <text x="243" y="234" text-anchor="middle" font-family="'LXGW WenKai','PingFang SC','Microsoft YaHei',Arial,sans-serif" font-size="20" font-weight="800" fill="#171412">低层信息来回传</text>
  </g><g>
    <g opacity="1">
    <path d="M 118 285 L 201 284 Q 214 284 213 294 L 212 332 Q 213 343 203 342 L 119 341 Q 107 342 108 332 L 109 294 Q 108 284 118 285 Z" fill="#fff8eb" stroke="#171412" stroke-width="3" stroke-linejoin="round"/>
    <path d="M 120 287 L 204 286 Q 211 285 211 295 L 214 330 Q 212 340 202 341 L 116 343 Q 109 340 110 331 L 107 296 Q 109 285 120 287 Z" fill="none" stroke="#171412" stroke-width="1.6500000000000001" stroke-linejoin="round" opacity=".45"/>
  </g>
    <text x="160.5" y="320" text-anchor="middle" font-family="'LXGW WenKai','PingFang SC','Microsoft YaHei',Arial,sans-serif" font-size="19" font-weight="800" fill="#171412">业务</text>
    
    
  </g><g>
    <g opacity="1">
    <path d="M 270 261 L 353 260 Q 366 260 365 270 L 364 308 Q 365 319 355 318 L 271 317 Q 259 318 260 308 L 261 270 Q 260 260 270 261 Z" fill="#fff8eb" stroke="#171412" stroke-width="3" stroke-linejoin="round"/>
    <path d="M 272 263 L 356 262 Q 363 261 363 271 L 366 306 Q 364 316 354 317 L 268 319 Q 261 316 262 307 L 259 272 Q 261 261 272 263 Z" fill="none" stroke="#171412" stroke-width="1.6500000000000001" stroke-linejoin="round" opacity=".45"/>
  </g>
    <text x="312.5" y="296" text-anchor="middle" font-family="'LXGW WenKai','PingFang SC','Microsoft YaHei',Arial,sans-serif" font-size="19" font-weight="800" fill="#171412">产品</text>
    
    
  </g><g>
    <g opacity="1">
    <path d="M 125 401 L 208 400 Q 221 400 220 410 L 219 448 Q 220 459 210 458 L 126 457 Q 114 458 115 448 L 116 410 Q 115 400 125 401 Z" fill="#fff8eb" stroke="#171412" stroke-width="3" stroke-linejoin="round"/>
    <path d="M 127 403 L 211 402 Q 218 401 218 411 L 221 446 Q 219 456 209 457 L 123 459 Q 116 456 117 447 L 114 412 Q 116 401 127 403 Z" fill="none" stroke="#171412" stroke-width="1.6500000000000001" stroke-linejoin="round" opacity=".45"/>
  </g>
    <text x="167.5" y="436" text-anchor="middle" font-family="'LXGW WenKai','PingFang SC','Microsoft YaHei',Arial,sans-serif" font-size="19" font-weight="800" fill="#171412">研发</text>
    
    
  </g><g>
    <g opacity="1">
    <path d="M 285 427 L 368 426 Q 381 426 380 436 L 379 474 Q 380 485 370 484 L 286 483 Q 274 484 275 474 L 276 436 Q 275 426 285 427 Z" fill="#fff8eb" stroke="#171412" stroke-width="3" stroke-linejoin="round"/>
    <path d="M 287 429 L 371 428 Q 378 427 378 437 L 381 472 Q 379 482 369 483 L 283 485 Q 276 482 277 473 L 274 438 Q 276 427 287 429 Z" fill="none" stroke="#171412" stroke-width="1.6500000000000001" stroke-linejoin="round" opacity=".45"/>
  </g>
    <text x="327.5" y="462" text-anchor="middle" font-family="'LXGW WenKai','PingFang SC','Microsoft YaHei',Arial,sans-serif" font-size="19" font-weight="800" fill="#171412">测试</text>
    
    
  </g><path d="M 214 300 C 250 300 230 285 260 288" fill="none" stroke="#171412" stroke-width="3" stroke-linecap="round" stroke-linejoin="round" opacity="1"/><path d="M 162 342 C 212 366 238 384 276 424" fill="none" stroke="#171412" stroke-width="3" stroke-linecap="round" stroke-linejoin="round" opacity="1"/><path d="M 314 318 C 260 358 222 386 220 424" fill="none" stroke="#171412" stroke-width="3" stroke-linecap="round" stroke-linejoin="round" opacity="1"/><path d="M 166 429 C 210 472 280 474 328 456" fill="none" stroke="#171412" stroke-width="3" stroke-linecap="round" stroke-linejoin="round" opacity="1"/><path d="M 438 374 C 520 328 586 330 656 374" fill="none" stroke="#171412" stroke-width="12" stroke-linecap="round" stroke-linejoin="round" marker-end="url(#arrow)" opacity="1"/><g opacity="1">
    <path d="M 516 293 L 574 292 Q 597 292 596 312 L 595 390 Q 596 411 576 410 L 517 409 Q 495 410 496 390 L 497 312 Q 496 292 516 293 Z" fill="#cfe1d6" stroke="#171412" stroke-width="3" stroke-linejoin="round"/>
    <path d="M 518 295 L 577 294 Q 594 293 594 313 L 597 388 Q 595 408 575 409 L 514 411 Q 497 408 498 389 L 495 314 Q 497 293 518 295 Z" fill="none" stroke="#171412" stroke-width="1.6500000000000001" stroke-linejoin="round" opacity=".45"/>
  </g><text x="546" y="348" text-anchor="middle" font-family="'LXGW WenKai','PingFang SC','Microsoft YaHei',Arial,sans-serif" font-size="38" font-weight="900" fill="#171412">AI</text><text x="546" y="382" text-anchor="middle" font-family="'LXGW WenKai','PingFang SC','Microsoft YaHei',Arial,sans-serif" font-size="19" font-weight="800" fill="#69645d">转译器</text><text x="928" y="148" text-anchor="middle" font-family="'LXGW WenKai','PingFang SC','Microsoft YaHei',Arial,sans-serif" font-size="32" font-weight="900" fill="#91bba5">现在：高层判断</text><g>
    <g opacity="1">
    <path d="M 710 207 L 1114 206 Q 1129 206 1128 218 L 1127 534 Q 1128 547 1116 546 L 711 545 Q 697 546 698 534 L 699 218 Q 698 206 710 207 Z" fill="#fff8eb" stroke="#171412" stroke-width="3" stroke-linejoin="round"/>
    <path d="M 712 209 L 1117 208 Q 1126 207 1126 219 L 1129 532 Q 1127 544 1115 545 L 708 547 Q 699 544 700 533 L 697 220 Q 699 207 712 209 Z" fill="none" stroke="#171412" stroke-width="1.6500000000000001" stroke-linejoin="round" opacity=".45"/>
  </g>
    <path d="M 699 248 L 1127 246" stroke="#171412" stroke-width="3"/>
    <path d="M 710 208 L 1116 207 Q 1128 207 1127 221 L 1127 247 L 699 248 L 699 220 Q 699 209 710 208 Z" fill="#91bba5" opacity=".95" stroke="#171412" stroke-width="2.5"/>
    <circle cx="720" cy="228" r="7" fill="#df765d" stroke="#171412" stroke-width="2"/>
    <circle cx="744" cy="228" r="7" fill="#e9c46a" stroke="#171412" stroke-width="2"/>
    <circle cx="768" cy="228" r="7" fill="#91bba5" stroke="#171412" stroke-width="2"/>
    <text x="913" y="234" text-anchor="middle" font-family="'LXGW WenKai','PingFang SC','Microsoft YaHei',Arial,sans-serif" font-size="20" font-weight="800" fill="#171412">压缩沟通链路</text>
  </g><g>
    <g opacity="1">
    <path d="M 758 271 L 886 270 Q 899 270 898 280 L 897 330 Q 898 341 888 340 L 759 339 Q 747 340 748 330 L 749 280 Q 748 270 758 271 Z" fill="#cfe1d6" stroke="#171412" stroke-width="3" stroke-linejoin="round"/>
    <path d="M 760 273 L 889 272 Q 896 271 896 281 L 899 328 Q 897 338 887 339 L 756 341 Q 749 338 750 329 L 747 282 Q 749 271 760 273 Z" fill="none" stroke="#171412" stroke-width="1.6500000000000001" stroke-linejoin="round" opacity=".45"/>
  </g>
    <text x="823" y="306" text-anchor="middle" font-family="'LXGW WenKai','PingFang SC','Microsoft YaHei',Arial,sans-serif" font-size="21" font-weight="800" fill="#171412">目标</text>
    <text x="823" y="337" text-anchor="middle" font-family="'LXGW WenKai','PingFang SC','Microsoft YaHei',Arial,sans-serif" font-size="17" font-weight="600" fill="#69645d">业务价值</text>
    
  </g><g>
    <g opacity="1">
    <path d="M 940 271 L 1068 270 Q 1081 270 1080 280 L 1079 330 Q 1080 341 1070 340 L 941 339 Q 929 340 930 330 L 931 280 Q 930 270 940 271 Z" fill="#cfe1d6" stroke="#171412" stroke-width="3" stroke-linejoin="round"/>
    <path d="M 942 273 L 1071 272 Q 1078 271 1078 281 L 1081 328 Q 1079 338 1069 339 L 938 341 Q 931 338 932 329 L 929 282 Q 931 271 942 273 Z" fill="none" stroke="#171412" stroke-width="1.6500000000000001" stroke-linejoin="round" opacity=".45"/>
  </g>
    <text x="1005" y="306" text-anchor="middle" font-family="'LXGW WenKai','PingFang SC','Microsoft YaHei',Arial,sans-serif" font-size="21" font-weight="800" fill="#171412">约束</text>
    <text x="1005" y="337" text-anchor="middle" font-family="'LXGW WenKai','PingFang SC','Microsoft YaHei',Arial,sans-serif" font-size="17" font-weight="600" fill="#69645d">边界条件</text>
    
  </g><g>
    <g opacity="1">
    <path d="M 758 411 L 886 410 Q 899 410 898 420 L 897 470 Q 898 481 888 480 L 759 479 Q 747 480 748 470 L 749 420 Q 748 410 758 411 Z" fill="#cfe1d6" stroke="#171412" stroke-width="3" stroke-linejoin="round"/>
    <path d="M 760 413 L 889 412 Q 896 411 896 421 L 899 468 Q 897 478 887 479 L 756 481 Q 749 478 750 469 L 747 422 Q 749 411 760 413 Z" fill="none" stroke="#171412" stroke-width="1.6500000000000001" stroke-linejoin="round" opacity=".45"/>
  </g>
    <text x="823" y="446" text-anchor="middle" font-family="'LXGW WenKai','PingFang SC','Microsoft YaHei',Arial,sans-serif" font-size="21" font-weight="800" fill="#171412">方案</text>
    <text x="823" y="477" text-anchor="middle" font-family="'LXGW WenKai','PingFang SC','Microsoft YaHei',Arial,sans-serif" font-size="17" font-weight="600" fill="#69645d">实现路径</text>
    
  </g><g>
    <g opacity="1">
    <path d="M 940 411 L 1068 410 Q 1081 410 1080 420 L 1079 470 Q 1080 481 1070 480 L 941 479 Q 929 480 930 470 L 931 420 Q 930 410 940 411 Z" fill="#cfe1d6" stroke="#171412" stroke-width="3" stroke-linejoin="round"/>
    <path d="M 942 413 L 1071 412 Q 1078 411 1078 421 L 1081 468 Q 1079 478 1069 479 L 938 481 Q 931 478 932 469 L 929 422 Q 931 411 942 413 Z" fill="none" stroke="#171412" stroke-width="1.6500000000000001" stroke-linejoin="round" opacity=".45"/>
  </g>
    <text x="1005" y="446" text-anchor="middle" font-family="'LXGW WenKai','PingFang SC','Microsoft YaHei',Arial,sans-serif" font-size="21" font-weight="800" fill="#171412">风险</text>
    <text x="1005" y="477" text-anchor="middle" font-family="'LXGW WenKai','PingFang SC','Microsoft YaHei',Arial,sans-serif" font-size="17" font-weight="600" fill="#69645d">验证清单</text>
    
  </g><path d="M 898 306 L 930 306" fill="none" stroke="#171412" stroke-width="3" stroke-linecap="round" stroke-linejoin="round" opacity="1"/><path d="M 824 340 L 824 410" fill="none" stroke="#171412" stroke-width="3" stroke-linecap="round" stroke-linejoin="round" opacity="1"/><path d="M 1006 340 L 1006 410" fill="none" stroke="#171412" stroke-width="3" stroke-linecap="round" stroke-linejoin="round" opacity="1"/><path d="M 898 446 L 930 446" fill="none" stroke="#171412" stroke-width="3" stroke-linecap="round" stroke-linejoin="round" opacity="1"/><text x="914" y="590" text-anchor="middle" font-family="'LXGW WenKai','PingFang SC','Microsoft YaHei',Arial,sans-serif" font-size="24" font-weight="900" fill="#171412">低层材料交给 AI，关键取舍留给人</text>
</svg>
