<svg xmlns="http://www.w3.org/2000/svg" width="1200" height="720" viewBox="0 0 1200 720" role="img" aria-labelledby="title desc">
  <title id="title">七、测试从验收角色变成质量建模角色</title>
  <desc id="desc">质量不是最后发现 bug，而是提前定义正确性</desc>
  <defs>
    <radialGradient id="paper" cx="50%" cy="45%" r="72%">
      <stop offset="0%" stop-color="#f8f1e3"/>
      <stop offset="100%" stop-color="#f2ead9"/>
    </radialGradient>
    <marker id="arrow" viewBox="0 0 14 14" refX="13" refY="7" markerWidth="34" markerHeight="34" markerUnits="userSpaceOnUse" orient="auto">
      <path d="M 1 1 L 13 7 L 1 13 z" fill="#171412" stroke="#171412" stroke-width="1"/>
    </marker>
    <marker id="smallArrow" viewBox="0 0 10 10" refX="9" refY="5" markerWidth="16" markerHeight="16" markerUnits="userSpaceOnUse" orient="auto">
      <path d="M 1 1 L 9 5 L 1 9 z" fill="#171412"/>
    </marker>
    <filter id="softShadow" x="-20%" y="-20%" width="140%" height="140%">
      <feDropShadow dx="0" dy="10" stdDeviation="8" flood-color="#161412" flood-opacity=".10"/>
    </filter>
  </defs>
  <rect width="1200" height="720" fill="url(#paper)"/>
  <path d="M 40 654 C 250 690 510 674 694 698 C 856 718 1010 696 1160 666" fill="none" stroke="#e6ddca" stroke-width="4" opacity=".6"/>
  <path d="M 34 22 C 230 10 460 18 690 12 C 880 8 1030 12 1166 24" fill="none" stroke="#efe5d0" stroke-width="4" opacity=".42"/>
  <text x="600" y="56" text-anchor="middle" font-family="'LXGW WenKai','PingFang SC','Microsoft YaHei',Arial,sans-serif" font-size="40" font-weight="900" fill="#171412">七、测试从验收角色变成质量建模角色</text>
  <text x="600" y="92" text-anchor="middle" font-family="'LXGW WenKai','PingFang SC','Microsoft YaHei',Arial,sans-serif" font-size="22" font-weight="700" fill="#69645d">质量不是最后发现 bug，而是提前定义正确性</text>
  <text x="236" y="146" text-anchor="middle" font-family="'LXGW WenKai','PingFang SC','Microsoft YaHei',Arial,sans-serif" font-size="32" font-weight="900" fill="#df765d">测试在最后</text><g>
    <g opacity="1">
    <rect x="70" y="214" width="400" height="328" rx="12" fill="#fff8eb" stroke="#171412" stroke-width="3" stroke-linejoin="round"/>
    <rect x="72" y="216" width="396" height="324" rx="10" fill="none" stroke="#171412" stroke-width="1.5" stroke-linejoin="round" opacity=".35"/>
  </g>
    <path d="M 82 215.5 L 458 215.5 Q 468.5 215.5 468.5 226 L 468.5 256 L 71.5 256 L 71.5 226 Q 71.5 215.5 82 215.5 Z" fill="#df765d" opacity=".95" stroke="#171412" stroke-width="2.5"/>
    <path d="M 71.5 256 L 468.5 256" stroke="#171412" stroke-width="3"/>
    <circle cx="92" cy="236" r="7" fill="#df765d" stroke="#171412" stroke-width="2"/>
    <circle cx="116" cy="236" r="7" fill="#e9c46a" stroke="#171412" stroke-width="2"/>
    <circle cx="140" cy="236" r="7" fill="#91bba5" stroke="#171412" stroke-width="2"/>
    <text x="270" y="242" text-anchor="middle" font-family="'LXGW WenKai','PingFang SC','Microsoft YaHei',Arial,sans-serif" font-size="20" font-weight="800" fill="#171412">验收式测试</text>
  </g><g>
    <g opacity="1">
    <rect x="118" y="300" width="120" height="66" rx="10" fill="#fff8eb" stroke="#171412" stroke-width="3" stroke-linejoin="round"/>
    <rect x="120" y="302" width="116" height="62" rx="8" fill="none" stroke="#171412" stroke-width="1.5" stroke-linejoin="round" opacity=".35"/>
  </g>
    <text x="178" y="339.3" text-anchor="middle" font-family="'LXGW WenKai','PingFang SC','Microsoft YaHei',Arial,sans-serif" font-size="18" font-weight="800" fill="#171412">开发完成</text>
    
    
  </g><path d="M 248 333 L 302 333" fill="none" stroke="#171412" stroke-width="4" stroke-linecap="round" stroke-linejoin="round" marker-end="url(#smallArrow)" opacity="1"/><g>
    <g opacity="1">
    <rect x="310" y="300" width="120" height="66" rx="10" fill="#f3b29f" stroke="#171412" stroke-width="3" stroke-linejoin="round"/>
    <rect x="312" y="302" width="116" height="62" rx="8" fill="none" stroke="#171412" stroke-width="1.5" stroke-linejoin="round" opacity=".35"/>
  </g>
    <text x="370" y="339.3" text-anchor="middle" font-family="'LXGW WenKai','PingFang SC','Microsoft YaHei',Arial,sans-serif" font-size="18" font-weight="800" fill="#171412">发现问题</text>
    
    
  </g><path d="M 370 366 C 330 420 238 426 178 390" fill="none" stroke="#171412" stroke-width="4" stroke-linecap="round" stroke-linejoin="round" marker-end="url(#smallArrow)" opacity="1"/><g>
    <g opacity="1">
    <rect x="156" y="430" width="88" height="34" rx="17" fill="#fff8eb" stroke="#171412" stroke-width="2" stroke-linejoin="round"/>
    <rect x="158" y="432" width="84" height="30" rx="15" fill="none" stroke="#171412" stroke-width="1.2" stroke-linejoin="round" opacity=".35"/>
  </g>
    <text x="200" y="453" text-anchor="middle" font-family="'LXGW WenKai','PingFang SC','Microsoft YaHei',Arial,sans-serif" font-size="17" font-weight="800" fill="#df765d">返工</text>
  </g><path d="M 490 378 L 686 378" fill="none" stroke="#171412" stroke-width="10" stroke-linecap="round" stroke-linejoin="round" marker-end="url(#arrow)" opacity="1"/>
  <g>
    <g opacity="1">
    <rect x="525" y="361" width="126" height="34" rx="17" fill="#fff8eb" stroke="#171412" stroke-width="2" stroke-linejoin="round"/>
    <rect x="527" y="363" width="122" height="30" rx="15" fill="none" stroke="#171412" stroke-width="1.2" stroke-linejoin="round" opacity=".35"/>
  </g>
    <text x="588" y="384" text-anchor="middle" font-family="'LXGW WenKai','PingFang SC','Microsoft YaHei',Arial,sans-serif" font-size="17" font-weight="800" fill="#171412">质量建模</text>
  </g><text x="928" y="146" text-anchor="middle" font-family="'LXGW WenKai','PingFang SC','Microsoft YaHei',Arial,sans-serif" font-size="32" font-weight="900" fill="#91bba5">风险前置</text><g>
    <g opacity="1">
    <rect x="708" y="214" width="422" height="328" rx="12" fill="#fff8eb" stroke="#171412" stroke-width="3" stroke-linejoin="round"/>
    <rect x="710" y="216" width="418" height="324" rx="10" fill="none" stroke="#171412" stroke-width="1.5" stroke-linejoin="round" opacity=".35"/>
  </g>
    <path d="M 720 215.5 L 1118 215.5 Q 1128.5 215.5 1128.5 226 L 1128.5 256 L 709.5 256 L 709.5 226 Q 709.5 215.5 720 215.5 Z" fill="#91bba5" opacity=".95" stroke="#171412" stroke-width="2.5"/>
    <path d="M 709.5 256 L 1128.5 256" stroke="#171412" stroke-width="3"/>
    <circle cx="730" cy="236" r="7" fill="#df765d" stroke="#171412" stroke-width="2"/>
    <circle cx="754" cy="236" r="7" fill="#e9c46a" stroke="#171412" stroke-width="2"/>
    <circle cx="778" cy="236" r="7" fill="#91bba5" stroke="#171412" stroke-width="2"/>
    <text x="919" y="242" text-anchor="middle" font-family="'LXGW WenKai','PingFang SC','Microsoft YaHei',Arial,sans-serif" font-size="20" font-weight="800" fill="#171412">证明系统是对的</text>
  </g><g>
    <g opacity="1">
    <rect x="742" y="284" width="150" height="62" rx="10" fill="#cfe1d6" stroke="#171412" stroke-width="3" stroke-linejoin="round"/>
    <rect x="744" y="286" width="146" height="58" rx="8" fill="none" stroke="#171412" stroke-width="1.5" stroke-linejoin="round" opacity=".35"/>
  </g>
    <text x="817" y="308" text-anchor="middle" font-family="'LXGW WenKai','PingFang SC','Microsoft YaHei',Arial,sans-serif" font-size="19" font-weight="800" fill="#171412">核心链路</text>
    <text x="817" y="333" text-anchor="middle" font-family="'LXGW WenKai','PingFang SC','Microsoft YaHei',Arial,sans-serif" font-size="17" font-weight="600" fill="#69645d">必须正确</text>
    
  </g><g>
    <g opacity="1">
    <rect x="946" y="284" width="150" height="62" rx="10" fill="#cfe1d6" stroke="#171412" stroke-width="3" stroke-linejoin="round"/>
    <rect x="948" y="286" width="146" height="58" rx="8" fill="none" stroke="#171412" stroke-width="1.5" stroke-linejoin="round" opacity=".35"/>
  </g>
    <text x="1021" y="308" text-anchor="middle" font-family="'LXGW WenKai','PingFang SC','Microsoft YaHei',Arial,sans-serif" font-size="19" font-weight="800" fill="#171412">边界异常</text>
    <text x="1021" y="333" text-anchor="middle" font-family="'LXGW WenKai','PingFang SC','Microsoft YaHei',Arial,sans-serif" font-size="17" font-weight="600" fill="#69645d">必须覆盖</text>
    
  </g><g>
    <g opacity="1">
    <rect x="742" y="404" width="150" height="62" rx="10" fill="#cfe1d6" stroke="#171412" stroke-width="3" stroke-linejoin="round"/>
    <rect x="744" y="406" width="146" height="58" rx="8" fill="none" stroke="#171412" stroke-width="1.5" stroke-linejoin="round" opacity=".35"/>
  </g>
    <text x="817" y="428" text-anchor="middle" font-family="'LXGW WenKai','PingFang SC','Microsoft YaHei',Arial,sans-serif" font-size="19" font-weight="800" fill="#171412">自动回归</text>
    <text x="817" y="453" text-anchor="middle" font-family="'LXGW WenKai','PingFang SC','Microsoft YaHei',Arial,sans-serif" font-size="17" font-weight="600" fill="#69645d">持续证明</text>
    
  </g><g>
    <g opacity="1">
    <rect x="946" y="404" width="150" height="62" rx="10" fill="#cfe1d6" stroke="#171412" stroke-width="3" stroke-linejoin="round"/>
    <rect x="948" y="406" width="146" height="58" rx="8" fill="none" stroke="#171412" stroke-width="1.5" stroke-linejoin="round" opacity=".35"/>
  </g>
    <text x="1021" y="428" text-anchor="middle" font-family="'LXGW WenKai','PingFang SC','Microsoft YaHei',Arial,sans-serif" font-size="19" font-weight="800" fill="#171412">线上监控</text>
    <text x="1021" y="453" text-anchor="middle" font-family="'LXGW WenKai','PingFang SC','Microsoft YaHei',Arial,sans-serif" font-size="17" font-weight="600" fill="#69645d">持续发现</text>
    
  </g><path d="M 892 315 L 946 315" fill="none" stroke="#171412" stroke-width="3" stroke-linecap="round" stroke-linejoin="round" opacity="1"/><path d="M 818 346 L 818 404" fill="none" stroke="#171412" stroke-width="3" stroke-linecap="round" stroke-linejoin="round" opacity="1"/><path d="M 1022 346 L 1022 404" fill="none" stroke="#171412" stroke-width="3" stroke-linecap="round" stroke-linejoin="round" opacity="1"/><path d="M 892 435 L 946 435" fill="none" stroke="#171412" stroke-width="3" stroke-linecap="round" stroke-linejoin="round" opacity="1"/><text x="918" y="594" text-anchor="middle" font-family="'LXGW WenKai','PingFang SC','Microsoft YaHei',Arial,sans-serif" font-size="24" font-weight="900" fill="#171412">不是多点几下，而是建立风险模型</text>
</svg>
