<svg xmlns="http://www.w3.org/2000/svg" width="1200" height="720" viewBox="0 0 1200 720" role="img" aria-labelledby="title desc">
  <title id="title">五、前后端被全栈闭环重新组织</title>
  <desc id="desc">联调成本来自两张图，全栈能力来自一条状态流</desc>
  <defs>
    <radialGradient id="paper" cx="50%" cy="45%" r="72%">
      <stop offset="0%" stop-color="#f8f1e3"/>
      <stop offset="100%" stop-color="#f2ead9"/>
    </radialGradient>
    <marker id="arrow" viewBox="0 0 14 14" refX="13" refY="7" markerWidth="34" markerHeight="34" markerUnits="userSpaceOnUse" orient="auto">
      <path d="M 1 1 L 13 7 L 1 13 z" fill="#171412" stroke="#171412" stroke-width="1"/>
    </marker>
    <marker id="smallArrow" viewBox="0 0 10 10" refX="9" refY="5" markerWidth="16" markerHeight="16" markerUnits="userSpaceOnUse" orient="auto">
      <path d="M 1 1 L 9 5 L 1 9 z" fill="#171412"/>
    </marker>
    <filter id="softShadow" x="-20%" y="-20%" width="140%" height="140%">
      <feDropShadow dx="0" dy="10" stdDeviation="8" flood-color="#161412" flood-opacity=".10"/>
    </filter>
  </defs>
  <rect width="1200" height="720" fill="url(#paper)"/>
  <path d="M 40 654 C 250 690 510 674 694 698 C 856 718 1010 696 1160 666" fill="none" stroke="#e6ddca" stroke-width="4" opacity=".6"/>
  <path d="M 34 22 C 230 10 460 18 690 12 C 880 8 1030 12 1166 24" fill="none" stroke="#efe5d0" stroke-width="4" opacity=".42"/>
  <text x="600" y="56" text-anchor="middle" font-family="'LXGW WenKai','PingFang SC','Microsoft YaHei',Arial,sans-serif" font-size="40" font-weight="900" fill="#171412">五、前后端被全栈闭环重新组织</text>
  <text x="600" y="92" text-anchor="middle" font-family="'LXGW WenKai','PingFang SC','Microsoft YaHei',Arial,sans-serif" font-size="22" font-weight="700" fill="#69645d">联调成本来自两张图，全栈能力来自一条状态流</text>
  <text x="235" y="148" text-anchor="middle" font-family="'LXGW WenKai','PingFang SC','Microsoft YaHei',Arial,sans-serif" font-size="32" font-weight="900" fill="#df765d">割裂联调</text><g>
    <g opacity="1">
    <rect x="70" y="210" width="400" height="330" rx="12" fill="#fff8eb" stroke="#171412" stroke-width="3" stroke-linejoin="round"/>
    <rect x="72" y="212" width="396" height="326" rx="10" fill="none" stroke="#171412" stroke-width="1.5" stroke-linejoin="round" opacity=".35"/>
  </g>
    <path d="M 82 211.5 L 458 211.5 Q 468.5 211.5 468.5 222 L 468.5 252 L 71.5 252 L 71.5 222 Q 71.5 211.5 82 211.5 Z" fill="#df765d" opacity=".95" stroke="#171412" stroke-width="2.5"/>
    <path d="M 71.5 252 L 468.5 252" stroke="#171412" stroke-width="3"/>
    <circle cx="92" cy="232" r="7" fill="#df765d" stroke="#171412" stroke-width="2"/>
    <circle cx="116" cy="232" r="7" fill="#e9c46a" stroke="#171412" stroke-width="2"/>
    <circle cx="140" cy="232" r="7" fill="#91bba5" stroke="#171412" stroke-width="2"/>
    <text x="270" y="238" text-anchor="middle" font-family="'LXGW WenKai','PingFang SC','Microsoft YaHei',Arial,sans-serif" font-size="20" font-weight="800" fill="#171412">前后端两张图</text>
  </g><g>
    <g opacity="1">
    <rect x="112" y="286" width="140" height="72" rx="10" fill="#f3b29f" stroke="#171412" stroke-width="3" stroke-linejoin="round"/>
    <rect x="114" y="288" width="136" height="68" rx="8" fill="none" stroke="#171412" stroke-width="1.5" stroke-linejoin="round" opacity=".35"/>
  </g>
    <text x="182" y="316" text-anchor="middle" font-family="'LXGW WenKai','PingFang SC','Microsoft YaHei',Arial,sans-serif" font-size="21" font-weight="800" fill="#171412">前端</text>
    <text x="182" y="343" text-anchor="middle" font-family="'LXGW WenKai','PingFang SC','Microsoft YaHei',Arial,sans-serif" font-size="17" font-weight="600" fill="#69645d">页面 / 状态</text>
    
  </g><g>
    <g opacity="1">
    <rect x="292" y="396" width="140" height="72" rx="10" fill="#fff8eb" stroke="#171412" stroke-width="3" stroke-linejoin="round"/>
    <rect x="294" y="398" width="136" height="68" rx="8" fill="none" stroke="#171412" stroke-width="1.5" stroke-linejoin="round" opacity=".35"/>
  </g>
    <text x="362" y="426" text-anchor="middle" font-family="'LXGW WenKai','PingFang SC','Microsoft YaHei',Arial,sans-serif" font-size="21" font-weight="800" fill="#171412">后端</text>
    <text x="362" y="453" text-anchor="middle" font-family="'LXGW WenKai','PingFang SC','Microsoft YaHei',Arial,sans-serif" font-size="17" font-weight="600" fill="#69645d">接口 / 数据</text>
    
  </g><path d="M 252 322 C 320 304 378 336 396 396" fill="none" stroke="#171412" stroke-width="3" stroke-linecap="round" stroke-linejoin="round" opacity="1" stroke-dasharray="9 8"/><text x="292" y="370" text-anchor="middle" font-family="'LXGW WenKai','PingFang SC','Microsoft YaHei',Arial,sans-serif" font-size="19" font-weight="800" fill="#69645d">字段？错误码？权限？</text><path d="M 490 378 L 682 378" fill="none" stroke="#171412" stroke-width="10" stroke-linecap="round" stroke-linejoin="round" marker-end="url(#arrow)" opacity="1"/>
  <g>
    <g opacity="1">
    <rect x="525" y="361" width="122" height="34" rx="17" fill="#fff8eb" stroke="#171412" stroke-width="2" stroke-linejoin="round"/>
    <rect x="527" y="363" width="118" height="30" rx="15" fill="none" stroke="#171412" stroke-width="1.2" stroke-linejoin="round" opacity=".35"/>
  </g>
    <text x="586" y="384" text-anchor="middle" font-family="'LXGW WenKai','PingFang SC','Microsoft YaHei',Arial,sans-serif" font-size="17" font-weight="800" fill="#171412">全栈闭环</text>
  </g><text x="928" y="148" text-anchor="middle" font-family="'LXGW WenKai','PingFang SC','Microsoft YaHei',Arial,sans-serif" font-size="32" font-weight="900" fill="#91bba5">完整状态流</text><g>
    <g opacity="1">
    <rect x="710" y="210" width="420" height="330" rx="12" fill="#fff8eb" stroke="#171412" stroke-width="3" stroke-linejoin="round"/>
    <rect x="712" y="212" width="416" height="326" rx="10" fill="none" stroke="#171412" stroke-width="1.5" stroke-linejoin="round" opacity=".35"/>
  </g>
    <path d="M 722 211.5 L 1118 211.5 Q 1128.5 211.5 1128.5 222 L 1128.5 252 L 711.5 252 L 711.5 222 Q 711.5 211.5 722 211.5 Z" fill="#91bba5" opacity=".95" stroke="#171412" stroke-width="2.5"/>
    <path d="M 711.5 252 L 1128.5 252" stroke="#171412" stroke-width="3"/>
    <circle cx="732" cy="232" r="7" fill="#df765d" stroke="#171412" stroke-width="2"/>
    <circle cx="756" cy="232" r="7" fill="#e9c46a" stroke="#171412" stroke-width="2"/>
    <circle cx="780" cy="232" r="7" fill="#91bba5" stroke="#171412" stroke-width="2"/>
    <text x="920" y="238" text-anchor="middle" font-family="'LXGW WenKai','PingFang SC','Microsoft YaHei',Arial,sans-serif" font-size="20" font-weight="800" fill="#171412">从点击到落库</text>
  </g><g>
    <g opacity="1">
    <rect x="758" y="292" width="126" height="66" rx="10" fill="#cfe1d6" stroke="#171412" stroke-width="3" stroke-linejoin="round"/>
    <rect x="760" y="294" width="122" height="62" rx="8" fill="none" stroke="#171412" stroke-width="1.5" stroke-linejoin="round" opacity=".35"/>
  </g>
    <text x="821" y="316" text-anchor="middle" font-family="'LXGW WenKai','PingFang SC','Microsoft YaHei',Arial,sans-serif" font-size="22" font-weight="800" fill="#171412">UI</text>
    <text x="821" y="345" text-anchor="middle" font-family="'LXGW WenKai','PingFang SC','Microsoft YaHei',Arial,sans-serif" font-size="17" font-weight="600" fill="#69645d">用户操作</text>
    
  </g><g>
    <g opacity="1">
    <rect x="926" y="292" width="126" height="66" rx="10" fill="#cfe1d6" stroke="#171412" stroke-width="3" stroke-linejoin="round"/>
    <rect x="928" y="294" width="122" height="62" rx="8" fill="none" stroke="#171412" stroke-width="1.5" stroke-linejoin="round" opacity=".35"/>
  </g>
    <text x="989" y="316" text-anchor="middle" font-family="'LXGW WenKai','PingFang SC','Microsoft YaHei',Arial,sans-serif" font-size="22" font-weight="800" fill="#171412">API</text>
    <text x="989" y="345" text-anchor="middle" font-family="'LXGW WenKai','PingFang SC','Microsoft YaHei',Arial,sans-serif" font-size="17" font-weight="600" fill="#69645d">接口契约</text>
    
  </g><g>
    <g opacity="1">
    <rect x="926" y="414" width="126" height="66" rx="10" fill="#cfe1d6" stroke="#171412" stroke-width="3" stroke-linejoin="round"/>
    <rect x="928" y="416" width="122" height="62" rx="8" fill="none" stroke="#171412" stroke-width="1.5" stroke-linejoin="round" opacity=".35"/>
  </g>
    <text x="989" y="438" text-anchor="middle" font-family="'LXGW WenKai','PingFang SC','Microsoft YaHei',Arial,sans-serif" font-size="22" font-weight="800" fill="#171412">DB</text>
    <text x="989" y="467" text-anchor="middle" font-family="'LXGW WenKai','PingFang SC','Microsoft YaHei',Arial,sans-serif" font-size="17" font-weight="600" fill="#69645d">数据落库</text>
    
  </g><g>
    <g opacity="1">
    <rect x="758" y="414" width="126" height="66" rx="10" fill="#cfe1d6" stroke="#171412" stroke-width="3" stroke-linejoin="round"/>
    <rect x="760" y="416" width="122" height="62" rx="8" fill="none" stroke="#171412" stroke-width="1.5" stroke-linejoin="round" opacity=".35"/>
  </g>
    <text x="821" y="438" text-anchor="middle" font-family="'LXGW WenKai','PingFang SC','Microsoft YaHei',Arial,sans-serif" font-size="22" font-weight="800" fill="#171412">OBS</text>
    <text x="821" y="467" text-anchor="middle" font-family="'LXGW WenKai','PingFang SC','Microsoft YaHei',Arial,sans-serif" font-size="17" font-weight="600" fill="#69645d">监控反馈</text>
    
  </g><path d="M 884 324 L 926 324" fill="none" stroke="#171412" stroke-width="4" stroke-linecap="round" stroke-linejoin="round" marker-end="url(#smallArrow)" opacity="1"/><path d="M 989 358 L 989 414" fill="none" stroke="#171412" stroke-width="4" stroke-linecap="round" stroke-linejoin="round" marker-end="url(#smallArrow)" opacity="1"/><path d="M 926 447 L 884 447" fill="none" stroke="#171412" stroke-width="4" stroke-linecap="round" stroke-linejoin="round" marker-end="url(#smallArrow)" opacity="1"/><path d="M 820 414 L 820 358" fill="none" stroke="#171412" stroke-width="4" stroke-linecap="round" stroke-linejoin="round" marker-end="url(#smallArrow)" opacity="1"/><text x="920" y="594" text-anchor="middle" font-family="'LXGW WenKai','PingFang SC','Microsoft YaHei',Arial,sans-serif" font-size="22" font-weight="900" fill="#171412">体验、性能、安全、可维护性放进同一个闭环</text>
</svg>
