<svg xmlns="http://www.w3.org/2000/svg" width="1200" height="720" viewBox="0 0 1200 720" role="img" aria-labelledby="title desc">
  <title id="title">二、流程和文档弥补上下文损耗</title>
  <desc id="desc">流程的价值，是让异步角色重新看见同一件事</desc>
  <defs>
    <radialGradient id="paper" cx="50%" cy="45%" r="72%">
      <stop offset="0%" stop-color="#f8f1e3"/>
      <stop offset="100%" stop-color="#f2ead9"/>
    </radialGradient>
    <marker id="arrow" viewBox="0 0 14 14" refX="13" refY="7" markerWidth="34" markerHeight="34" markerUnits="userSpaceOnUse" orient="auto">
      <path d="M 1 1 L 13 7 L 1 13 z" fill="#171412" stroke="#171412" stroke-width="1"/>
    </marker>
    <marker id="smallArrow" viewBox="0 0 10 10" refX="9" refY="5" markerWidth="16" markerHeight="16" markerUnits="userSpaceOnUse" orient="auto">
      <path d="M 1 1 L 9 5 L 1 9 z" fill="#171412"/>
    </marker>
    <filter id="softShadow" x="-20%" y="-20%" width="140%" height="140%">
      <feDropShadow dx="0" dy="10" stdDeviation="8" flood-color="#161412" flood-opacity=".10"/>
    </filter>
  </defs>
  <rect width="1200" height="720" fill="url(#paper)"/>
  <path d="M 40 654 C 250 690 510 674 694 698 C 856 718 1010 696 1160 666" fill="none" stroke="#e6ddca" stroke-width="4" opacity=".6"/>
  <path d="M 34 22 C 230 10 460 18 690 12 C 880 8 1030 12 1166 24" fill="none" stroke="#efe5d0" stroke-width="4" opacity=".42"/>
  <text x="600" y="56" text-anchor="middle" font-family="'LXGW WenKai','PingFang SC','Microsoft YaHei',Arial,sans-serif" font-size="40" font-weight="900" fill="#171412">二、流程和文档弥补上下文损耗</text>
  <text x="600" y="92" text-anchor="middle" font-family="'LXGW WenKai','PingFang SC','Microsoft YaHei',Arial,sans-serif" font-size="22" font-weight="700" fill="#69645d">流程的价值，是让异步角色重新看见同一件事</text>
  <text x="235" y="142" text-anchor="middle" font-family="'LXGW WenKai','PingFang SC','Microsoft YaHei',Arial,sans-serif" font-size="34" font-weight="900" fill="#df765d">信息损耗</text><g>
    <g opacity="1">
    <rect x="68" y="196" width="410" height="372" rx="12" fill="#fff8eb" stroke="#171412" stroke-width="3" stroke-linejoin="round"/>
    <rect x="70" y="198" width="406" height="368" rx="10" fill="none" stroke="#171412" stroke-width="1.5" stroke-linejoin="round" opacity=".35"/>
  </g>
    <path d="M 80 197.5 L 466 197.5 Q 476.5 197.5 476.5 208 L 476.5 238 L 69.5 238 L 69.5 208 Q 69.5 197.5 80 197.5 Z" fill="#df765d" opacity=".95" stroke="#171412" stroke-width="2.5"/>
    <path d="M 69.5 238 L 476.5 238" stroke="#171412" stroke-width="3"/>
    <circle cx="90" cy="218" r="7" fill="#df765d" stroke="#171412" stroke-width="2"/>
    <circle cx="114" cy="218" r="7" fill="#e9c46a" stroke="#171412" stroke-width="2"/>
    <circle cx="138" cy="218" r="7" fill="#91bba5" stroke="#171412" stroke-width="2"/>
    <text x="273" y="224" text-anchor="middle" font-family="'LXGW WenKai','PingFang SC','Microsoft YaHei',Arial,sans-serif" font-size="20" font-weight="800" fill="#171412">文档与会议堆叠</text>
  </g><path d="M 180 286 C 260 236 286 324 356 284" fill="none" stroke="#171412" stroke-width="3" stroke-linecap="round" stroke-linejoin="round" opacity="0.78"/><path d="M 356 286 C 436 248 118 400 188 370" fill="none" stroke="#171412" stroke-width="3" stroke-linecap="round" stroke-linejoin="round" opacity="0.78"/><path d="M 180 370 C 260 344 285 474 355 454" fill="none" stroke="#171412" stroke-width="3" stroke-linecap="round" stroke-linejoin="round" opacity="0.78"/><path d="M 354 370 C 434 356 108 464 178 454" fill="none" stroke="#171412" stroke-width="3" stroke-linecap="round" stroke-linejoin="round" opacity="0.78"/><path d="M 180 455 C 260 453 284 286 354 286" fill="none" stroke="#171412" stroke-width="3" stroke-linecap="round" stroke-linejoin="round" opacity="0.78"/><path d="M 354 455 C 434 465 110 276 180 286" fill="none" stroke="#171412" stroke-width="3" stroke-linecap="round" stroke-linejoin="round" opacity="0.78"/><g>
    <g opacity="1">
    <rect x="105" y="258" width="150" height="58" rx="10" fill="#f3b29f" stroke="#171412" stroke-width="3" stroke-linejoin="round"/>
    <rect x="107" y="260" width="146" height="54" rx="8" fill="none" stroke="#171412" stroke-width="1.5" stroke-linejoin="round" opacity=".35"/>
  </g>
    <text x="180" y="293.65" text-anchor="middle" font-family="'LXGW WenKai','PingFang SC','Microsoft YaHei',Arial,sans-serif" font-size="19" font-weight="800" fill="#171412">PRD</text>
    
    
  </g><g>
    <g opacity="1">
    <rect x="280" y="258" width="150" height="58" rx="10" fill="#fff8eb" stroke="#171412" stroke-width="3" stroke-linejoin="round"/>
    <rect x="282" y="260" width="146" height="54" rx="8" fill="none" stroke="#171412" stroke-width="1.5" stroke-linejoin="round" opacity=".35"/>
  </g>
    <text x="355" y="293.65" text-anchor="middle" font-family="'LXGW WenKai','PingFang SC','Microsoft YaHei',Arial,sans-serif" font-size="19" font-weight="800" fill="#171412">概要设计</text>
    
    
  </g><g>
    <g opacity="1">
    <rect x="105" y="342" width="150" height="58" rx="10" fill="#f3b29f" stroke="#171412" stroke-width="3" stroke-linejoin="round"/>
    <rect x="107" y="344" width="146" height="54" rx="8" fill="none" stroke="#171412" stroke-width="1.5" stroke-linejoin="round" opacity=".35"/>
  </g>
    <text x="180" y="377.65" text-anchor="middle" font-family="'LXGW WenKai','PingFang SC','Microsoft YaHei',Arial,sans-serif" font-size="19" font-weight="800" fill="#171412">接口文档</text>
    
    
  </g><g>
    <g opacity="1">
    <rect x="280" y="342" width="150" height="58" rx="10" fill="#fff8eb" stroke="#171412" stroke-width="3" stroke-linejoin="round"/>
    <rect x="282" y="344" width="146" height="54" rx="8" fill="none" stroke="#171412" stroke-width="1.5" stroke-linejoin="round" opacity=".35"/>
  </g>
    <text x="355" y="377.65" text-anchor="middle" font-family="'LXGW WenKai','PingFang SC','Microsoft YaHei',Arial,sans-serif" font-size="19" font-weight="800" fill="#171412">测试用例</text>
    
    
  </g><g>
    <g opacity="1">
    <rect x="105" y="426" width="150" height="58" rx="10" fill="#f3b29f" stroke="#171412" stroke-width="3" stroke-linejoin="round"/>
    <rect x="107" y="428" width="146" height="54" rx="8" fill="none" stroke="#171412" stroke-width="1.5" stroke-linejoin="round" opacity=".35"/>
  </g>
    <text x="180" y="461.65" text-anchor="middle" font-family="'LXGW WenKai','PingFang SC','Microsoft YaHei',Arial,sans-serif" font-size="19" font-weight="800" fill="#171412">上线检查</text>
    
    
  </g><g>
    <g opacity="1">
    <rect x="280" y="426" width="150" height="58" rx="10" fill="#fff8eb" stroke="#171412" stroke-width="3" stroke-linejoin="round"/>
    <rect x="282" y="428" width="146" height="54" rx="8" fill="none" stroke="#171412" stroke-width="1.5" stroke-linejoin="round" opacity=".35"/>
  </g>
    <text x="355" y="461.65" text-anchor="middle" font-family="'LXGW WenKai','PingFang SC','Microsoft YaHei',Arial,sans-serif" font-size="19" font-weight="800" fill="#171412">复盘</text>
    
    
  </g><path d="M 500 380 L 690 380" fill="none" stroke="#171412" stroke-width="10" stroke-linecap="round" stroke-linejoin="round" marker-end="url(#arrow)" opacity="1"/>
  <g>
    <g opacity="1">
    <rect x="522" y="363" width="146" height="34" rx="17" fill="#fff8eb" stroke="#171412" stroke-width="2" stroke-linejoin="round"/>
    <rect x="524" y="365" width="142" height="30" rx="15" fill="none" stroke="#171412" stroke-width="1.2" stroke-linejoin="round" opacity=".35"/>
  </g>
    <text x="595" y="386" text-anchor="middle" font-family="'LXGW WenKai','PingFang SC','Microsoft YaHei',Arial,sans-serif" font-size="17" font-weight="800" fill="#171412">上下文对齐</text>
  </g><text x="928" y="142" text-anchor="middle" font-family="'LXGW WenKai','PingFang SC','Microsoft YaHei',Arial,sans-serif" font-size="34" font-weight="900" fill="#91bba5">共同语义</text><g>
    <g opacity="1">
    <rect x="716" y="196" width="412" height="372" rx="12" fill="#fff8eb" stroke="#171412" stroke-width="3" stroke-linejoin="round"/>
    <rect x="718" y="198" width="408" height="368" rx="10" fill="none" stroke="#171412" stroke-width="1.5" stroke-linejoin="round" opacity=".35"/>
  </g>
    <path d="M 728 197.5 L 1116 197.5 Q 1126.5 197.5 1126.5 208 L 1126.5 238 L 717.5 238 L 717.5 208 Q 717.5 197.5 728 197.5 Z" fill="#91bba5" opacity=".95" stroke="#171412" stroke-width="2.5"/>
    <path d="M 717.5 238 L 1126.5 238" stroke="#171412" stroke-width="3"/>
    <circle cx="738" cy="218" r="7" fill="#df765d" stroke="#171412" stroke-width="2"/>
    <circle cx="762" cy="218" r="7" fill="#e9c46a" stroke="#171412" stroke-width="2"/>
    <circle cx="786" cy="218" r="7" fill="#91bba5" stroke="#171412" stroke-width="2"/>
    <text x="922" y="224" text-anchor="middle" font-family="'LXGW WenKai','PingFang SC','Microsoft YaHei',Arial,sans-serif" font-size="20" font-weight="800" fill="#171412">一张工程判断清单</text>
  </g><g>
    <g opacity="1">
    <rect x="760" y="270" width="148" height="64" rx="10" fill="#cfe1d6" stroke="#171412" stroke-width="3" stroke-linejoin="round"/>
    <rect x="762" y="272" width="144" height="60" rx="8" fill="none" stroke="#171412" stroke-width="1.5" stroke-linejoin="round" opacity=".35"/>
  </g>
    <text x="834" y="294" text-anchor="middle" font-family="'LXGW WenKai','PingFang SC','Microsoft YaHei',Arial,sans-serif" font-size="21" font-weight="800" fill="#171412">目标</text>
    <text x="834" y="321" text-anchor="middle" font-family="'LXGW WenKai','PingFang SC','Microsoft YaHei',Arial,sans-serif" font-size="17" font-weight="600" fill="#69645d">做什么</text>
    
  </g><g>
    <g opacity="1">
    <rect x="945" y="270" width="148" height="64" rx="10" fill="#cfe1d6" stroke="#171412" stroke-width="3" stroke-linejoin="round"/>
    <rect x="947" y="272" width="144" height="60" rx="8" fill="none" stroke="#171412" stroke-width="1.5" stroke-linejoin="round" opacity=".35"/>
  </g>
    <text x="1019" y="294" text-anchor="middle" font-family="'LXGW WenKai','PingFang SC','Microsoft YaHei',Arial,sans-serif" font-size="21" font-weight="800" fill="#171412">边界</text>
    <text x="1019" y="321" text-anchor="middle" font-family="'LXGW WenKai','PingFang SC','Microsoft YaHei',Arial,sans-serif" font-size="17" font-weight="600" fill="#69645d">不做什么</text>
    
  </g><g>
    <g opacity="1">
    <rect x="760" y="382" width="148" height="64" rx="10" fill="#cfe1d6" stroke="#171412" stroke-width="3" stroke-linejoin="round"/>
    <rect x="762" y="384" width="144" height="60" rx="8" fill="none" stroke="#171412" stroke-width="1.5" stroke-linejoin="round" opacity=".35"/>
  </g>
    <text x="834" y="406" text-anchor="middle" font-family="'LXGW WenKai','PingFang SC','Microsoft YaHei',Arial,sans-serif" font-size="21" font-weight="800" fill="#171412">风险</text>
    <text x="834" y="433" text-anchor="middle" font-family="'LXGW WenKai','PingFang SC','Microsoft YaHei',Arial,sans-serif" font-size="17" font-weight="600" fill="#69645d">哪里会错</text>
    
  </g><g>
    <g opacity="1">
    <rect x="945" y="382" width="148" height="64" rx="10" fill="#cfe1d6" stroke="#171412" stroke-width="3" stroke-linejoin="round"/>
    <rect x="947" y="384" width="144" height="60" rx="8" fill="none" stroke="#171412" stroke-width="1.5" stroke-linejoin="round" opacity=".35"/>
  </g>
    <text x="1019" y="406" text-anchor="middle" font-family="'LXGW WenKai','PingFang SC','Microsoft YaHei',Arial,sans-serif" font-size="21" font-weight="800" fill="#171412">验证</text>
    <text x="1019" y="433" text-anchor="middle" font-family="'LXGW WenKai','PingFang SC','Microsoft YaHei',Arial,sans-serif" font-size="17" font-weight="600" fill="#69645d">如何证明</text>
    
  </g><text x="800" y="505" text-anchor="start" font-family="'LXGW WenKai','PingFang SC','Microsoft YaHei',Arial,sans-serif" font-size="25" font-weight="900" fill="#171412">•</text><text x="824" y="505" text-anchor="start" font-family="'LXGW WenKai','PingFang SC','Microsoft YaHei',Arial,sans-serif" font-size="18" font-weight="650" fill="#171412">需求评审：目标一致</text>
<text x="800" y="533" text-anchor="start" font-family="'LXGW WenKai','PingFang SC','Microsoft YaHei',Arial,sans-serif" font-size="25" font-weight="900" fill="#171412">•</text><text x="824" y="533" text-anchor="start" font-family="'LXGW WenKai','PingFang SC','Microsoft YaHei',Arial,sans-serif" font-size="18" font-weight="650" fill="#171412">转测：范围明确</text>
<text x="800" y="561" text-anchor="start" font-family="'LXGW WenKai','PingFang SC','Microsoft YaHei',Arial,sans-serif" font-size="25" font-weight="900" fill="#171412">•</text><text x="824" y="561" text-anchor="start" font-family="'LXGW WenKai','PingFang SC','Microsoft YaHei',Arial,sans-serif" font-size="18" font-weight="650" fill="#171412">上线：风险可控</text>
</svg>
